<svg width="152" height="172" viewBox="0 0 152 172" fill="none" xmlns="http://www.w3.org/2000/svg">
<path d="M47.6748 157L81.0819 137.561L83.478 141.702L109.662 126.427L111.967 130.384L152 107.127V90L42 153.71L47.6748 157Z" fill="white"/>
<path d="M23.7976 144L53.7288 126.653L56.133 130.78L83.5678 114.847L85.8801 118.801L152 80.4967V63L18 140.655L23.7976 144Z" fill="white"/>
<path d="M145.536 38L0 123.198C0.115012 125.264 0.690074 127.236 1.64468 129L27.0509 114.112L29.4546 118.289L56.8967 102.194L59.1969 106.198L152 51.9016V49.6157C152 44.8696 149.55 40.4716 145.548 38.0114L145.536 38Z" fill="white"/>
<path d="M29.5831 90.286L57.0154 74.2157L59.327 78.2131L137 32.8057L121.863 24L0 95.2566V102L27.1792 86.1151L29.5831 90.286Z" fill="white"/>
<path d="M32.6044 61.6492L60.1014 45.6724L62.4189 49.6465L114 19.7545L98.8276 11L0 68.2958V75L30.1948 57.5025L32.6044 61.6492Z" fill="white"/>
<path d="M31.8026 35.2038L58.1587 20.004L60.4665 23.9528L91 6.40668L82.9454 1.7941C78.7568 -0.598032 73.5985 -0.598032 69.4213 1.7941L6.69287 37.7218C2.8964 39.8964 0.42696 43.7309 0 48L29.4025 31.0834L31.8142 35.2038H31.8026Z" fill="white"/>
<path d="M101.708 152.12L70 170.582C74.0251 172.594 78.8094 172.467 82.7426 170.189L145.261 133.901C149.435 131.485 152 127.011 152 122.167V117L99.1197 147.635L101.708 152.132V152.12Z" fill="white"/>
</svg>
