<svg width="155" height="187" viewBox="0 0 155 187" fill="none" xmlns="http://www.w3.org/2000/svg">
<path d="M139 123.727C138.656 124.438 138.299 125.149 137.937 125.854C137.913 125.897 137.889 125.947 137.871 125.99C128.714 143.676 117.016 159.347 101.38 171.957C94.7905 177.274 88.0864 182.312 80.5673 186.225C79.5284 186.769 78.5682 187.028 77.5837 186.998C76.6053 187.028 75.6449 186.769 74.6063 186.225C67.0868 182.312 60.5704 177.039 53.8 171.957C45.3447 165.615 31.6411 150.29 26 140.789C80.4344 150.655 112.287 104.539 139 123.721V123.727Z" fill="white"/>
<path d="M152.988 77.6533C152.775 79.351 152.538 81.0428 152.264 82.7346C151.674 86.3642 150.938 89.9693 150.008 93.5558C148.865 97.9726 147.654 102.365 146.28 106.696C146.28 106.696 146.28 106.696 146.28 106.702C145.733 108 145.252 109.206 144.924 110.246C120.203 73.9621 86.5539 137.283 19.8096 131.641C18.8427 129.95 17.9122 128.234 17 126.499C93.9245 115.185 95.8949 47.5524 153 77.6533H152.988Z" fill="white"/>
<path d="M154.991 29.7616C154.773 33.9191 154.586 38.0766 154.411 42.2339C154.206 47.0824 154.018 51.9371 153.825 56.7915C98.7359 26.9736 62.8895 103.79 12.0465 114C11.6237 112.887 11.213 111.774 10.8204 110.649C8.78497 104.872 7.12403 98.9595 5.58388 93.0045C4.65981 89.4462 3.92897 85.8574 3.34312 82.2502C2.84785 79.1991 2.46131 76.1361 2.15931 73.0607C1.75465 69.0438 1.50701 65.0026 1.3379 60.949C1.07819 54.7127 0.848673 48.4703 0.582922 42.2339C0.407767 38.0766 0.220534 33.9129 0.0091404 29.7616C-0.0995762 27.7256 0.764116 27.2793 2.46131 26.9918C11.213 25.5246 19.9768 24.1 28.6801 22.4064C53.1234 17.6497 70.2643 4.7737 75.6879 0.597852C76.7448 -0.215306 78.2307 -0.196963 79.2697 0.640652C84.053 4.52304 98.6636 15.7116 126.32 22.4064C134.939 24.4913 143.787 25.5246 152.539 26.9918C154.236 27.2793 155.099 27.7194 154.991 29.7616Z" fill="white"/>
</svg>
