<svg width="170" height="156" viewBox="0 0 170 156" fill="none" xmlns="http://www.w3.org/2000/svg">
<g clip-path="url(#clip0_292_27)">
<path d="M76.5842 0C118.88 0 153.168 34.1709 153.168 76.3226C153.168 118.474 118.88 152.645 76.5842 152.645C34.2878 152.645 0 118.474 0 76.3226C8.84912e-05 34.1709 34.288 0 76.5842 0ZM75.7426 18.4516C43.2071 18.4516 16.8319 44.7369 16.8317 77.1613C16.8317 109.586 43.2069 135.871 75.7426 135.871C108.278 135.871 134.653 109.586 134.653 77.1613C134.653 44.7369 108.278 18.4516 75.7426 18.4516Z" fill="white"/>
<path d="M141.386 107.354H170V127.483H141.386V155.999H121.188V127.483H92.5743V107.354H121.188V78.8379H141.386V107.354Z" fill="white"/>
</g>
<defs>
<clipPath id="clip0_292_27">
<rect width="170" height="156" fill="white"/>
</clipPath>
</defs>
</svg>
