<svg width="512" height="122" viewBox="0 0 512 122" fill="none" xmlns="http://www.w3.org/2000/svg">
<path d="M177.514 85.1745H170.354V29.786H177.514V47.808L177.185 58.803L185.333 50.1227L205.002 29.786H213.973L192.657 51.8588L215.454 85.1745H206.483L187.39 57.0669L177.514 67.3179V85.1745ZM259.242 85.1745H221.55V29.786H259.242V36.1516H228.71V53.5948H253.893V59.9604H228.71V78.809H259.242V85.1745ZM274.52 85.1745H267.36V29.786H273.697L298.304 65.0032L303.983 73.6008L303.571 65.1685V29.786H310.731V85.1745H304.312L279.046 49.1307L274.108 41.7731L274.52 49.1307V85.1745ZM343.409 86.0012C333.039 86.0012 323.575 82.0331 319.954 71.7821L325.386 66.9873C327.937 75.9982 336.496 79.2223 343.409 79.2223C349.582 79.2223 354.766 76.8249 354.766 70.79C354.766 64.4245 349.911 62.8538 342.586 61.1177L337.401 59.9604C330.077 58.307 321.764 55.0002 321.764 44.5838C321.764 34.4982 330.488 29.042 340.117 29.042C350.075 29.042 357.976 33.4235 361.35 41.6904L355.342 46.4852C352.709 38.9623 347.113 35.9036 339.953 35.9036C333.862 35.9036 329.336 38.9623 329.336 44.0878C329.336 49.6267 333.369 51.6934 339.706 53.2641L345.713 54.7522C353.532 56.6536 362.091 59.7124 362.091 70.6247C362.091 80.2144 354.108 86.0012 343.409 86.0012ZM379.082 85.1745H371.922V29.786H379.082V53.5948H408.134V29.786H415.294V85.1745H408.134V59.9604H379.082V85.1745ZM461.533 22.9245H442.193V17.2203H461.533V22.9245ZM451.904 86.0012C436.02 86.0012 425.239 73.5181 425.239 57.3976C425.239 41.4424 436.02 28.9593 451.904 28.9593C467.87 28.9593 478.569 41.4424 478.569 57.3976C478.569 73.5181 467.87 86.0012 451.904 86.0012ZM451.987 79.1397C464.578 79.1397 471.162 70.1287 471.162 57.3976C471.162 44.8319 464.578 35.7382 451.987 35.7382C439.395 35.7382 432.811 44.8319 432.811 57.3976C432.811 70.1287 439.395 79.1397 451.987 79.1397Z" fill="white"/>
<path d="M55.5204 56.8219L44.2592 45.5103L55.5204 0H119.421V39.7226L55.5204 56.8219Z" fill="white"/>
<path d="M55.7808 65.2399L43.9961 77.8671L55.7808 121.536H119.681V81.8131L55.7808 65.2399Z" fill="white"/>
<path d="M0 71.2906V121.799H25.403L35.6165 77.341L23.3079 65.2399L0 71.2906Z" fill="white"/>
<path d="M36.1398 45.7733L24.8786 56.8219L0.261322 49.7191V0.526184H24.8786L36.1398 45.7733Z" fill="white"/>
</svg>
