<svg width="332" height="336" viewBox="0 0 332 336" fill="none" xmlns="http://www.w3.org/2000/svg">
<path d="M156.97 157.303C155.235 157.77 153.384 157.27 152.119 155.994L124.974 128.596C123.748 127.359 123.254 125.573 123.671 123.881L153.227 3.86212C153.777 1.62797 155.781 0.0577393 158.082 0.0577393H326C328.761 0.0577393 331 2.29632 331 5.05774V106.678C331 108.939 329.482 110.919 327.298 111.506L156.97 157.303Z" fill="white"/>
<path d="M157.576 179.745C155.803 179.286 153.92 179.833 152.669 181.172L123.899 211.958C122.718 213.222 122.274 215.006 122.726 216.676L153.7 331.304C154.289 333.485 156.268 335 158.527 335H327C329.761 335 332 332.761 332 330V228.795C332 226.517 330.459 224.527 328.254 223.955L157.576 179.745Z" fill="white"/>
<path d="M3.74524 194.825C1.53998 195.397 0 197.387 0 199.665V331C0 333.761 2.23858 336 5 336H66.6299C68.9595 336 70.9804 334.391 71.5027 332.121L98.3725 215.319C98.7624 213.624 98.2436 211.848 97.0027 210.63L66.8056 180.982C65.553 179.752 63.7472 179.269 62.0479 179.71L3.74524 194.825Z" fill="white"/>
<path d="M99.3148 122.618C99.7395 124.332 99.2287 126.143 97.9709 127.383L71.0138 153.944C69.725 155.214 67.8507 155.688 66.1129 155.185L4.60845 137.363C2.47089 136.744 1 134.786 1 132.561V5C1 2.23858 3.23858 0 6 0H65.0148C67.3129 0 69.3151 1.56658 69.868 3.79726L99.3148 122.618Z" fill="white"/>
</svg>
