<svg width="186" height="51" viewBox="0 0 186 51" fill="none" xmlns="http://www.w3.org/2000/svg">
<path d="M47.4492 12.776C48.3395 12.1728 49.4681 11.8674 50.8097 11.8674C52.3059 11.8674 53.541 12.2492 54.4769 13C55.4153 13.7534 56.0772 14.8071 56.445 16.1358L56.483 16.2706L59.6151 15.4256L59.5745 15.2857C58.9938 13.3437 57.9438 11.7758 56.4577 10.6279C54.9689 9.47744 53.0694 8.89453 50.8097 8.89453C48.8517 8.89453 47.1551 9.33238 45.7728 10.1952C44.3907 11.058 43.3179 12.2772 42.585 13.8196C41.8546 15.3569 41.4868 17.1615 41.4868 19.1849C41.4868 21.2084 41.8571 23.0129 42.585 24.5503C43.3179 26.0927 44.3882 27.3119 45.7728 28.1747C47.1551 29.0375 48.8492 29.4753 50.8097 29.4753C53.0694 29.4753 54.9689 28.8925 56.4577 27.742C57.9438 26.5915 58.9938 25.0262 59.5745 23.0842L59.6151 22.9442L56.483 22.0992L56.445 22.2341C56.0772 23.5525 55.4153 24.6037 54.4769 25.3622C53.541 26.1182 52.3059 26.5025 50.8097 26.5025C49.4681 26.5025 48.3369 26.1971 47.4442 25.5939C46.5514 24.9906 45.8692 24.1328 45.4203 23.046C44.9664 21.949 44.7406 20.6535 44.7508 19.19C44.7508 17.7265 44.9816 16.4285 45.4355 15.334C45.8844 14.2472 46.5641 13.3895 47.4543 12.7862L47.4492 12.776Z" fill="white"/>
<path d="M78.1567 24.9016L73.9872 14.2575L73.9517 14.1683H70.708L76.6578 28.8645L74.2079 35.561H77.1878L85.2606 14.3618L85.3314 14.1683H82.1714L78.1567 24.9016Z" fill="white"/>
<path d="M97.2814 14.7945C96.2696 14.1098 95.0527 13.7611 93.6623 13.7611C92.2727 13.7611 91.0683 14.1098 90.1099 14.7945C89.9064 14.9395 89.7087 15.1025 89.5161 15.2832V14.1658H86.7261V35.5585H89.838V28.1951C89.9373 28.2765 90.0332 28.3504 90.1275 28.4191C91.0908 29.114 92.2986 29.4678 93.7157 29.4678C95.1336 29.4678 96.3055 29.119 97.3072 28.4293C98.309 27.742 99.0897 26.7902 99.6326 25.6041C100.173 24.4231 100.447 23.0767 100.447 21.6005C100.447 20.1242 100.171 18.7676 99.6251 17.5968C99.0771 16.4184 98.2864 15.4766 97.2764 14.792L97.2814 14.7945ZM96.7467 24.1736C96.4648 24.9245 96.0369 25.5303 95.4706 25.9732C94.9101 26.4109 94.1878 26.6323 93.3253 26.6323C92.4629 26.6323 91.7022 26.4186 91.1442 25.9986C90.5862 25.5761 90.17 24.983 89.9114 24.2373C89.6479 23.4814 89.5161 22.5956 89.5161 21.6055C89.5161 20.6154 89.6504 19.7297 89.9189 18.9738C90.1833 18.228 90.5937 17.64 91.1392 17.2252C91.6822 16.8128 92.387 16.6042 93.2319 16.6042C94.1294 16.6042 94.8775 16.8256 95.4531 17.2659C96.0311 17.7088 96.4673 18.3095 96.7492 19.0578C97.0328 19.8137 97.1779 20.6714 97.1779 21.6055C97.1779 22.5396 97.0328 23.4127 96.7492 24.1736H96.7467Z" fill="white"/>
<path d="M125.758 25.6932C126.353 24.5199 126.655 23.1429 126.655 21.603C126.655 20.0631 126.356 18.7167 125.763 17.5459C125.169 16.3726 124.317 15.4384 123.229 14.7691C122.141 14.0996 120.842 13.7611 119.366 13.7611C117.89 13.7611 116.633 14.0945 115.544 14.7487C114.457 15.4054 113.599 16.3344 112.998 17.5103C112.397 18.6836 112.093 20.0606 112.093 21.6005C112.093 23.1403 112.39 24.502 112.978 25.6754C113.566 26.8538 114.416 27.7905 115.504 28.4598C116.592 29.1292 117.89 29.4678 119.366 29.4678C120.842 29.4678 122.128 29.1318 123.214 28.4649C124.302 27.8007 125.156 26.8665 125.753 25.6881L125.758 25.6932ZM119.368 26.5229C118.063 26.5229 117.064 26.0775 116.392 25.1969C115.712 24.306 115.369 23.097 115.369 21.603C115.369 20.6332 115.517 19.7704 115.805 19.0374C116.09 18.3146 116.531 17.7394 117.116 17.3295C117.7 16.9198 118.458 16.7111 119.368 16.7111C120.69 16.7111 121.7 17.1539 122.364 18.0295C123.038 18.9152 123.381 20.1191 123.381 21.6056C123.381 23.0919 123.043 24.2552 122.377 25.1689C121.72 26.0698 120.708 26.5255 119.368 26.5255V26.5229Z" fill="white"/>
<path d="M131.888 14.9014L141.19 29.002L141.231 29.0656H144.307V9.29675H141.168V23.4482L131.865 9.36046L131.822 9.29675H128.748V29.0656H131.888V14.9014Z" fill="white"/>
<path d="M160.657 25.1307L157.63 24.166L157.576 24.2755C157.228 24.9957 156.741 25.5582 156.126 25.9426C155.509 26.3269 154.764 26.5229 153.914 26.5229C152.625 26.5229 151.626 26.0978 150.949 25.2554C150.406 24.5835 150.077 23.6773 149.963 22.5549H160.789L160.797 22.4226C160.906 20.6587 160.696 19.1138 160.173 17.8284C159.648 16.5354 158.842 15.5224 157.781 14.82C156.721 14.1174 155.42 13.7611 153.916 13.7611C152.412 13.7611 151.195 14.092 150.11 14.7411C149.022 15.3926 148.162 16.3267 147.556 17.5179C146.949 18.704 146.643 20.1242 146.643 21.7353C146.643 23.2574 146.955 24.6166 147.568 25.7721C148.184 26.9301 149.059 27.8465 150.17 28.4929C151.279 29.1394 152.585 29.4652 154.051 29.4652C155.517 29.4652 156.8 29.0961 157.967 28.3682C159.136 27.6377 160.021 26.5942 160.596 25.2655L160.657 25.1231V25.1307ZM150.949 17.8361C151.628 16.9834 152.661 16.5507 154.021 16.5507C155.245 16.5507 156.166 16.9427 156.762 17.7139C157.191 18.2713 157.477 19.0654 157.609 20.0707H150.036C150.19 19.157 150.497 18.4062 150.949 17.8361Z" fill="white"/>
<path d="M103.711 10.1088V14.1684H100.919V16.7238H103.711V26.3574C103.714 27.9762 105.028 29.2947 106.642 29.2947H111.152V26.411H107.28C107.029 26.411 106.825 26.2073 106.825 25.9554V16.7238H111.155V14.1684H106.825V10.1088H103.711Z" fill="white"/>
<path d="M185.646 16.7238V14.1684H181.316V10.1088H178.205V14.1684H171.775L168.261 19.0883L164.705 14.1684H161.01L166.44 21.5343L160.888 29.063H164.596L168.258 23.9803L171.895 29.063H175.603L170.039 21.5343L175.413 14.2422V16.7212H178.205V26.3549C178.207 27.9737 179.521 29.2921 181.136 29.2921H185.646V26.4084H181.774C181.523 26.4084 181.319 26.2048 181.319 25.9528V16.7212H185.649L185.646 16.7238Z" fill="white"/>
<path d="M69.2144 14.1862C68.9735 14.1862 68.6311 14.1862 68.2278 14.1862C67.4239 14.1862 66.3739 14.1862 65.4025 14.1862C64.3222 14.1862 63.3078 14.6087 62.5418 15.3748C61.7785 16.141 61.3574 17.1615 61.3574 18.2458V20.1828L61.3625 20.2489V29.1954H64.4744V18.4062C64.4744 17.6731 65.0703 17.075 65.8007 17.075H69.7394V14.3338C69.7394 14.1913 69.6912 14.1913 69.217 14.1888L69.2144 14.1862Z" fill="white"/>
<path d="M121.571 36.737C122.063 36.4163 122.699 36.2611 123.477 36.2738C124.299 36.2789 124.984 36.4723 125.534 36.8516C126.082 37.2308 126.409 37.7449 126.516 38.3939L127.619 38.1878C127.563 37.6074 127.35 37.0959 126.982 36.6556C126.615 36.2152 126.133 35.8716 125.534 35.6247C124.936 35.3778 124.264 35.2532 123.516 35.2532C122.767 35.2532 122.108 35.3727 121.54 35.6095C120.969 35.8462 120.525 36.177 120.208 36.5996C119.892 37.022 119.731 37.5108 119.731 38.0682C119.731 38.5314 119.838 38.9208 120.053 39.2415C120.269 39.5597 120.64 39.8448 121.164 40.0942C121.692 40.3436 122.422 40.5955 123.355 40.845C124.241 41.0893 124.908 41.3006 125.354 41.4839C125.803 41.6645 126.102 41.8631 126.257 42.0795C126.409 42.2958 126.486 42.5707 126.486 42.9092C126.486 43.5277 126.24 44.0164 125.748 44.3727C125.255 44.7291 124.591 44.9072 123.757 44.9072C122.922 44.9072 122.204 44.7291 121.626 44.3727C121.048 44.0164 120.68 43.5378 120.523 42.9372L119.419 43.1256C119.6 44.0062 120.069 44.6959 120.827 45.1897C121.583 45.6835 122.544 45.9304 123.711 45.9304C124.878 45.9304 125.879 45.6631 126.574 45.1286C127.269 44.5941 127.617 43.8585 127.617 42.9194C127.617 42.4001 127.505 41.9649 127.279 41.6111C127.056 41.2574 126.67 40.9494 126.125 40.6872C125.58 40.4251 124.822 40.168 123.85 39.9186C123.054 39.7175 122.435 39.5317 121.999 39.3561C121.563 39.1804 121.259 38.9895 121.088 38.7783C120.916 38.5696 120.832 38.315 120.832 38.0147C120.832 37.4904 121.078 37.0653 121.571 36.7446V36.737Z" fill="white"/>
<path d="M136.059 35.9199C135.364 35.472 134.527 35.2505 133.551 35.2505C132.574 35.2505 131.753 35.4669 131.051 35.897C130.35 36.3272 129.808 36.9456 129.425 37.7499C129.041 38.5542 128.849 39.5087 128.849 40.6159C128.849 41.7231 129.041 42.6469 129.427 43.4436C129.813 44.2403 130.358 44.8562 131.063 45.2915C131.768 45.7266 132.603 45.943 133.569 45.943C134.535 45.943 135.428 45.7063 136.194 45.2304C136.959 44.7544 137.546 44.0799 137.951 43.2043L136.98 42.7717C136.637 43.4538 136.174 43.9756 135.592 44.342C135.009 44.7086 134.329 44.8918 133.551 44.8918C132.423 44.8918 131.55 44.5177 130.929 43.7668C130.356 43.0746 130.049 42.1201 130.006 40.906H138.167C138.184 39.7174 138.012 38.7019 137.649 37.8568C137.285 37.0118 136.754 36.3679 136.062 35.9199H136.059ZM130.026 39.9312C130.112 38.8723 130.413 38.0299 130.929 37.4038C131.548 36.6504 132.428 36.2737 133.569 36.2737C134.71 36.2737 135.519 36.6351 136.11 37.3605C136.612 37.9765 136.914 38.8342 137.01 39.9312H130.026Z" fill="white"/>
<path d="M142.101 36.8489C142.618 36.4825 143.275 36.2992 144.071 36.2992C144.782 36.2992 145.41 36.4723 145.958 36.8184C146.506 37.1646 146.909 37.6558 147.163 38.2871L148.21 37.9027C147.924 37.078 147.409 36.429 146.663 35.9556C145.918 35.4847 145.058 35.248 144.078 35.248C143.1 35.248 142.228 35.4694 141.538 35.9149C140.846 36.3578 140.318 36.9813 139.952 37.7856C139.587 38.5899 139.399 39.524 139.387 40.5955C139.399 41.6467 139.584 42.5732 139.942 43.3749C140.3 44.1792 140.825 44.8079 141.517 45.2609C142.209 45.714 143.059 45.9406 144.068 45.9406C145.078 45.9406 145.859 45.7166 146.564 45.2711C147.27 44.8232 147.817 44.1716 148.21 43.3164L147.145 42.9499C146.863 43.5811 146.461 44.0622 145.935 44.393C145.408 44.7239 144.787 44.8894 144.071 44.8894C142.912 44.8894 142.04 44.4974 141.449 43.7135C140.861 42.9296 140.556 41.8885 140.539 40.5955C140.551 39.7505 140.685 39.0073 140.939 38.3634C141.195 37.7195 141.58 37.2155 142.098 36.8489H142.101Z" fill="white"/>
<path d="M157.089 41.0002C157.089 41.5576 157.026 42.0717 156.896 42.5426C156.77 43.0135 156.575 43.4232 156.318 43.7669C156.059 44.1105 155.73 44.3778 155.327 44.5686C154.926 44.7595 154.449 44.8537 153.901 44.8537C153.353 44.8537 152.912 44.762 152.524 44.5813C152.134 44.4007 151.811 44.1334 151.553 43.7847C151.294 43.436 151.101 43.011 150.975 42.5095C150.848 42.0081 150.782 41.4405 150.782 40.8017V35.5305H149.699V41.0741C149.699 41.5983 149.749 42.1023 149.854 42.5833C149.958 43.0644 150.115 43.5073 150.326 43.9094C150.536 44.3115 150.804 44.6628 151.129 44.9606C151.454 45.2584 151.834 45.4875 152.273 45.6503C152.712 45.8132 153.209 45.8947 153.765 45.8947C154.55 45.8947 155.256 45.7242 155.885 45.3831C156.412 45.098 156.846 44.6806 157.193 44.1359V45.6605H158.174V35.533H157.092V41.0002H157.089Z" fill="white"/>
<path d="M167.995 32.1096H166.919V33.4891H167.995V32.1096Z" fill="white"/>
<path d="M167.995 35.5305H166.919V45.6579H167.995V35.5305Z" fill="white"/>
<path d="M180.914 44.2225L177.432 35.5305H176.283L180.389 45.663L178.723 50.163H179.844L185.208 35.5305H184.076L180.914 44.2225Z" fill="white"/>
<path d="M172.669 32.6926H171.495V35.5509H169.428V36.5384H171.495V44.08C171.495 44.8766 172.144 45.5256 172.938 45.5256H175.692V44.4974H173.333C172.965 44.4974 172.666 44.1971 172.666 43.828V36.5384H175.692V35.5509H172.666V32.6926H172.669Z" fill="white"/>
<path d="M162.512 35.5278C161.974 35.5278 161.466 35.7391 161.086 36.1209C160.706 36.5027 160.496 37.0118 160.496 37.5514V45.6732H161.622V37.648C161.622 37.0296 162.124 36.5256 162.74 36.5256H165.349V35.5329C165.056 35.5329 163.779 35.5329 162.509 35.5329L162.512 35.5278Z" fill="white"/>
<path d="M10.4414 34.7215L17.8318 30.42L18.3618 31.3363L24.1544 27.9562L24.6642 28.8318L33.5203 23.6853V19.8955L9.18604 33.9935L10.4414 34.7215Z" fill="white"/>
<path d="M5.25478 31.7181L11.8538 27.8774L12.3839 28.7911L18.4326 25.2634L18.9424 26.139L33.5201 17.6582V13.7844L3.97656 30.9774L5.25478 31.7181Z" fill="white"/>
<path d="M32.0972 8.42676L0.00488281 27.1138C0.0302442 27.5669 0.157051 27.9996 0.367552 28.3864L5.96989 25.1209L6.49994 26.0371L12.5512 22.5069L13.0584 23.3851L33.5225 11.4759V10.9745C33.5225 9.93352 32.9824 8.96886 32.0998 8.42927L32.0972 8.42676Z" fill="white"/>
<path d="M6.52296 19.9565L12.5717 16.4263L13.0814 17.3044L30.208 7.32964L26.8704 5.39526L0 21.0484V22.5297L5.9929 19.0403L6.52296 19.9565Z" fill="white"/>
<path d="M7.17222 13.6137L13.2209 10.0835L13.7307 10.9616L25.0774 4.35674L21.7398 2.42236L0 15.0823V16.5637L6.64216 12.6975L7.17222 13.6137Z" fill="white"/>
<path d="M7.00475 7.82849L12.7973 4.44843L13.3045 5.32653L20.0152 1.42469L18.2449 0.398965C17.3244 -0.132988 16.1907 -0.132988 15.2726 0.398965L1.4861 8.38844C0.651709 8.87202 0.108974 9.72472 0.0151367 10.6741L6.47723 6.91221L7.00728 7.82849H7.00475Z" fill="white"/>
<path d="M22.4297 33.5456L15.4375 37.6104C16.3251 38.0532 17.3802 38.0252 18.2475 37.5238L32.034 29.5343C32.9546 29.0024 33.5202 28.0174 33.5202 26.9509V25.8132L21.859 32.558L22.4297 33.5482V33.5456Z" fill="white"/>
</svg>
