<svg width="178" height="39" viewBox="0 0 178 39" fill="none" xmlns="http://www.w3.org/2000/svg">
<path d="M93.7859 16.0046L84.8119 6.79601V16.0046H81.624V0.221436H82.6265L91.4382 9.04744V0.221436H94.6255V16.0046H93.7859Z" fill="white"/>
<path d="M140.679 6.27862V7.87599C140.679 12.829 137.035 16.274 132.755 16.274H132.73C128.154 16.228 124.511 12.6053 124.554 8.08056C124.603 3.60121 128.292 0 132.821 0H132.892C134.826 0.0218351 136.58 0.697735 137.967 1.79961L135.668 4.02719C134.848 3.46416 133.895 3.1729 132.87 3.14905H132.821C131.48 3.14905 130.205 3.6684 129.248 4.61171C128.292 5.53553 127.744 6.79596 127.744 8.12626C127.723 9.45151 128.246 10.7364 129.18 11.6814C130.134 12.6486 131.412 13.1898 132.755 13.1898C135.076 13.1898 137.057 11.5471 137.649 9.43002H131.604V6.27862H140.679Z" fill="white"/>
<path d="M154.773 0.221313L149.579 10.2166V16.0045H146.392V10.2166L141.177 0.221313H144.708L147.986 6.16568L151.244 0.221313H154.773Z" fill="white"/>
<path d="M114.603 6.52645V3.35355H117.654C118.542 3.35355 119.249 4.07514 119.249 4.95092C119.249 5.82872 118.542 6.52645 117.654 6.52645H114.603ZM119.409 16.0045H122.802L119.638 9.25187C121.3 8.50611 122.436 6.86306 122.436 4.95092C122.436 2.33836 120.298 0.202148 117.654 0.202148H111.415V6.52645V9.9039V15.9803H114.603V9.9039H116.53L119.409 16.0045Z" fill="white"/>
<path d="M97.7349 16.0046H108.3V12.8505H100.92V9.45152H107.229V6.30017H100.92V3.37754H108.366V0.221436H97.7349V16.0046Z" fill="white"/>
<path d="M67.8071 16.0046H78.3729V12.8505H70.995V9.45152H77.3021V6.30017H70.995V3.37754H78.4413V0.221436H67.8071V0.245287V16.0046Z" fill="white"/>
<path d="M84.2467 30.8405C84.2467 33.5444 86.4606 35.7346 89.1982 35.7346C91.9326 35.7346 94.1484 33.5444 94.1484 30.8405C94.1484 28.1342 91.9326 25.946 89.1982 25.946C86.4606 25.946 84.2467 28.1342 84.2467 30.8405ZM97.4057 30.8405C97.4057 35.312 93.7181 38.9549 89.1982 38.9549C84.6769 38.9549 80.9897 35.312 80.9897 30.8405C80.9897 26.3713 84.6769 22.726 89.1982 22.726C93.7181 22.726 97.4057 26.3713 97.4057 30.8405Z" fill="white"/>
<path d="M116.668 30.8405C116.668 33.5444 118.884 35.7346 121.619 35.7346C124.354 35.7346 126.57 33.5444 126.57 30.8405C126.57 28.1342 124.354 25.946 121.619 25.946C118.884 25.946 116.668 28.1342 116.668 30.8405ZM129.827 30.8405C129.827 35.312 126.142 38.9549 121.619 38.9549C117.095 38.9549 113.411 35.312 113.411 30.8405C113.411 26.3713 117.095 22.726 121.619 22.726C126.142 22.726 129.827 26.3713 129.827 30.8405Z" fill="white"/>
<path d="M143.031 23.0151V26.1494H138.646V38.6873H135.48V26.1494H131.073V23.0151H143.031Z" fill="white"/>
<path d="M145.02 23.015H148.185V38.6632H145.02V23.015Z" fill="white"/>
<path d="M162.161 26.8156C159.085 24.8495 154.45 26.6819 154.45 30.8858C154.45 35.288 159.358 37.0556 162.341 34.82L164.376 37.1203C162.951 38.2835 161.119 39 159.13 39C154.609 39 150.922 35.355 150.922 30.8858C150.922 26.4143 154.609 22.7714 159.13 22.7714C161.029 22.7714 162.794 23.4189 164.195 24.4936L162.161 26.8156Z" fill="white"/>
<path d="M171.76 32.0468C171.238 31.9152 170.267 31.6667 169.363 31.0627C168.097 30.2361 167.396 29.0299 167.325 27.5322C167.26 26.2803 167.669 25.1865 168.483 24.3359C169.655 23.1297 171.351 22.7954 172.166 22.7954C174.473 22.7954 175.761 23.622 176.914 24.3576L177.434 24.6942L175.783 27.3531L175.217 26.9971C174.2 26.3473 173.545 25.922 172.166 25.922C171.963 25.922 171.17 26.0798 170.764 26.5051C170.629 26.6388 170.472 26.8847 170.494 27.3984C170.516 28.2033 171.081 28.6499 172.529 29.0082C172.709 29.0513 172.845 29.0966 172.98 29.142C174.495 29.6557 175.672 30.3485 176.486 31.2225C177.298 32.1138 177.728 33.1645 177.728 34.2826C177.728 35.3764 177.255 36.5186 176.462 37.3902C175.534 38.4173 174.246 39 172.823 39C172.119 39 171.17 38.9547 170.039 38.6181C168.616 38.1714 167.35 37.3902 166.266 36.2484L168.573 34.1035C170.245 35.8688 172.119 35.8688 172.823 35.8688C174.132 35.8688 174.56 34.6862 174.56 34.2826C174.56 33.4321 173.591 32.6512 171.939 32.0921L171.872 32.0707L171.76 32.0468Z" fill="white"/>
<path d="M68.0513 38.6633H71.2141V32.6296H73.1307L75.9864 38.6873H79.3546L76.2111 31.9822C77.8618 31.2417 78.995 29.6102 78.995 27.7112C78.995 25.1173 76.8688 22.9961 74.2446 22.9961H68.0513V26.1253H74.2446C75.1263 26.1253 75.8268 26.8419 75.8268 27.7112C75.8268 28.5831 75.1263 29.2759 74.2446 29.2759H68.0513V38.6633Z" fill="white"/>
<path d="M105.982 36.0598C107.12 36.0598 108.031 35.1805 108.031 34.0123C108.031 32.8875 106.893 32.0563 105.709 32.0563H103.23V36.0598H105.982ZM105.666 29.5815C106.825 29.5815 107.622 28.6808 107.622 27.5561C107.622 26.4309 106.825 25.6427 105.666 25.6427H103.23V29.5815H105.666ZM100.294 22.9672H105.939C108.645 22.9672 110.74 24.7661 110.74 27.1285C110.74 28.8603 109.304 30.2096 108.237 30.7067C109.443 31.089 111.194 32.3021 111.194 34.3709C111.194 36.8931 109.01 38.7134 106.233 38.7134H100.294V22.9672Z" fill="white"/>
<path d="M25.7192 31.0177H0V38.6872H25.7192V31.0177Z" fill="white"/>
<path d="M0 22.7435V15.0676H40.8804C43.0465 15.0676 44.7595 13.5903 44.7595 11.4498C44.7595 9.3159 43.0465 7.91976 40.8804 7.91976H0V0.274076L40.8804 0.243774C47.3108 0.243774 52.5244 5.45173 52.5244 11.8076C52.5244 16.4694 49.7536 20.4687 45.703 22.2743L53.4091 38.717H45.1514L37.5472 22.7435H0Z" fill="white"/>
</svg>
