<svg width="195" height="39" viewBox="0 0 195 39" fill="none" xmlns="http://www.w3.org/2000/svg">
<path d="M28.8142 25.7393C28.7427 25.886 28.6688 26.0328 28.5936 26.1782C28.5887 26.1872 28.5837 26.1974 28.5799 26.2063C26.6807 29.8568 24.2541 33.0913 21.0107 35.6942C19.6439 36.7915 18.2534 37.8314 16.6937 38.6391C16.4782 38.7514 16.279 38.8049 16.0748 38.7986C15.8719 38.8049 15.6727 38.7514 15.4572 38.6391C13.8975 37.8314 12.5458 36.743 11.1415 35.6942C9.3876 34.3851 6.54511 31.2221 5.375 29.2609C16.6661 31.2973 23.2732 21.7788 28.8142 25.738V25.7393Z" fill="white"/>
<path d="M31.6053 16.111C31.5615 16.4632 31.5126 16.8141 31.4562 17.165C31.3347 17.9178 31.1832 18.6655 30.9915 19.4094C30.756 20.3254 30.5067 21.2365 30.2236 22.1347C30.2236 22.1347 30.2236 22.1347 30.2236 22.136C30.1108 22.4052 30.0118 22.6553 29.9442 22.871C24.8517 15.3455 17.9202 28.4787 4.17106 27.3087C3.97187 26.9578 3.7802 26.6018 3.59229 26.242C19.4385 23.8955 19.8444 9.86785 31.6078 16.111H31.6053Z" fill="white"/>
<path d="M32.1478 6.21101C32.1027 7.07865 32.0638 7.9463 32.0275 8.8139C31.9849 9.82574 31.946 10.8389 31.906 11.8519C20.4795 5.62919 13.0444 21.6601 2.49864 23.7909C2.41095 23.5587 2.32576 23.3265 2.24434 23.0917C1.82215 21.8859 1.47765 20.6521 1.15819 19.4093C0.966524 18.6667 0.814935 17.9178 0.69342 17.165C0.590693 16.5283 0.510517 15.889 0.447879 15.2472C0.363944 14.4089 0.312581 13.5655 0.277503 12.7196C0.223634 11.4181 0.176029 10.1154 0.120908 8.8139C0.084578 7.9463 0.0457426 7.07737 0.00189588 6.21101C-0.0206538 5.78611 0.158491 5.69297 0.510517 5.63299C2.32576 5.32678 4.14352 5.02948 5.94874 4.67604C11.0187 3.68337 14.574 0.996234 15.699 0.124767C15.9182 -0.0449327 16.2264 -0.0411047 16.4419 0.133699C17.434 0.943923 20.4645 3.27889 26.2009 4.67604C27.9886 5.11114 29.8239 5.32678 31.6392 5.63299C31.9912 5.69297 32.1703 5.78483 32.1478 6.21101Z" fill="white"/>
<path d="M71.5974 8.64248V32.5276H67.7863V21.8954H56.0122V32.5276H52.1851V8.64248H56.0122V19.0922H67.7863V8.64248H71.5974ZM92.8038 29.3927L92.7877 32.5276H78.1629V8.64248H92.7877V11.7774H81.99V18.9761H90.6217V22.0115H81.99V29.3927H92.8038ZM101.734 11.7774V19.424H110.903V22.5589H101.734V32.5276H97.9067V8.64248H112.532V11.7774H101.734ZM124.108 20.0874C124.977 20.0874 125.737 19.9824 126.388 19.7723C127.04 19.5511 127.582 19.247 128.016 18.86C128.451 18.473 128.777 18.0141 128.994 17.4833C129.211 16.9414 129.319 16.3443 129.319 15.6919C129.319 14.3871 128.896 13.3919 128.049 12.7062C127.202 12.0207 125.921 11.6779 124.206 11.6779H121.111V20.0874H124.108ZM135.15 32.5276H131.746C131.073 32.5276 130.585 32.2622 130.28 31.7315L124.809 23.6868C124.624 23.4103 124.423 23.2113 124.206 23.0897C123.989 22.9681 123.663 22.9072 123.229 22.9072H121.111V32.5276H117.301V8.64248H124.206C125.748 8.64248 127.072 8.80279 128.18 9.12346C129.298 9.44414 130.215 9.90305 130.932 10.5002C131.648 11.0862 132.175 11.794 132.512 12.6233C132.859 13.4527 133.033 14.376 133.033 15.3933C133.033 16.2227 132.908 16.9967 132.658 17.7155C132.419 18.4343 132.066 19.0867 131.6 19.6728C131.143 20.2588 130.579 20.7675 129.906 21.1987C129.233 21.63 128.467 21.9673 127.609 22.2106C128.076 22.4981 128.478 22.9017 128.815 23.4214L135.15 32.5276ZM142.78 32.5276H138.953V8.64248H142.78V32.5276ZM168.726 8.64248V32.5276H166.788C166.495 32.5276 166.245 32.4778 166.039 32.3783C165.832 32.2678 165.637 32.0908 165.453 31.8476L152.57 14.9953C152.603 15.3159 152.625 15.6366 152.636 15.9573C152.658 16.2669 152.668 16.5544 152.668 16.8198V32.5276H149.314V8.64248H151.3C151.463 8.64248 151.599 8.65351 151.707 8.67563C151.827 8.68666 151.936 8.71432 152.033 8.75856C152.131 8.80279 152.223 8.86914 152.31 8.95761C152.397 9.04608 152.489 9.15666 152.587 9.28937L165.485 26.1583C165.453 25.8155 165.425 25.4782 165.404 25.1465C165.393 24.8147 165.388 24.5051 165.388 24.2176V8.64248H168.726ZM194.492 20.7675V30.2221C192.158 31.936 189.444 32.793 186.35 32.793C184.45 32.793 182.729 32.4945 181.187 31.8973C179.656 31.2891 178.348 30.4487 177.262 29.3761C176.176 28.2924 175.34 27.0042 174.754 25.5114C174.168 24.0185 173.875 22.3764 173.875 20.585C173.875 18.7826 174.157 17.1349 174.722 15.6422C175.286 14.1382 176.095 12.85 177.148 11.7774C178.201 10.6937 179.471 9.85882 180.959 9.27274C182.446 8.67563 184.118 8.37708 185.975 8.37708C186.919 8.37708 187.794 8.45446 188.597 8.60928C189.411 8.75301 190.166 8.95761 190.86 9.22302C191.555 9.48837 192.196 9.80909 192.782 10.185C193.369 10.561 193.906 10.9812 194.394 11.4457L193.304 13.2205C193.13 13.4969 192.907 13.6683 192.635 13.7346C192.364 13.801 192.071 13.7346 191.756 13.5356C191.441 13.3476 191.105 13.1486 190.747 12.9385C190.399 12.7283 189.997 12.5348 189.541 12.3579C189.085 12.1699 188.559 12.0207 187.962 11.9101C187.364 11.7884 186.659 11.7276 185.845 11.7276C184.607 11.7276 183.489 11.9377 182.49 12.3579C181.502 12.7671 180.655 13.3587 179.949 14.1327C179.244 14.8957 178.701 15.8246 178.32 16.9193C177.941 18.0141 177.751 19.236 177.751 20.585C177.751 22.0115 177.952 23.2887 178.353 24.4166C178.755 25.5335 179.325 26.4845 180.063 27.2695C180.801 28.0436 181.692 28.6352 182.734 29.0444C183.787 29.4535 184.96 29.6581 186.252 29.6581C187.218 29.6581 188.076 29.553 188.825 29.3429C189.585 29.1328 190.328 28.8398 191.056 28.4638V23.72H187.783C187.533 23.72 187.338 23.6536 187.196 23.5209C187.055 23.3772 186.984 23.1947 186.984 22.9735V20.7675H194.492Z" fill="white"/>
</svg>
