<svg width="107" height="43" viewBox="0 0 107 43" fill="none" xmlns="http://www.w3.org/2000/svg">
<path d="M4.048 1.672C6.18933 1.672 7.832 2.08267 8.976 2.904C10.1347 3.71067 10.714 4.92067 10.714 6.534C10.714 7.414 10.5527 8.16933 10.23 8.8C9.922 9.416 9.46733 9.922 8.866 10.318C8.27933 10.6994 7.56067 10.978 6.71 11.154C5.85933 11.33 4.89867 11.418 3.828 11.418H2.134V17.072H0V2.046C0.601334 1.89933 1.26867 1.804 2.002 1.76C2.75 1.70133 3.432 1.672 4.048 1.672ZM4.224 3.542C3.31467 3.542 2.618 3.564 2.134 3.608V9.592H3.74C4.47333 9.592 5.13333 9.548 5.72 9.46C6.30667 9.35733 6.798 9.196 7.194 8.976C7.60467 8.74133 7.92 8.426 8.14 8.03C8.36 7.634 8.47 7.128 8.47 6.512C8.47 5.92533 8.35267 5.44133 8.118 5.06C7.898 4.67867 7.59 4.378 7.194 4.158C6.81267 3.92333 6.36533 3.762 5.852 3.674C5.33867 3.586 4.796 3.542 4.224 3.542ZM16.6188 17.072H14.5728V5.632H16.6188V17.072ZM15.5848 3.564C15.2181 3.564 14.9028 3.44667 14.6388 3.212C14.3894 2.96267 14.2648 2.63267 14.2648 2.222C14.2648 1.81133 14.3894 1.48867 14.6388 1.254C14.9028 1.00467 15.2181 0.879999 15.5848 0.879999C15.9514 0.879999 16.2594 1.00467 16.5088 1.254C16.7728 1.48867 16.9048 1.81133 16.9048 2.222C16.9048 2.63267 16.7728 2.96267 16.5088 3.212C16.2594 3.44667 15.9514 3.564 15.5848 3.564ZM28.2992 17.072C28.1379 16.7494 27.9399 16.39 27.7052 15.994C27.4706 15.598 27.2139 15.1947 26.9352 14.784C26.6566 14.3587 26.3706 13.9407 26.0772 13.53C25.7839 13.1194 25.4979 12.7307 25.2192 12.364C24.9406 12.7307 24.6546 13.1267 24.3612 13.552C24.0679 13.9627 23.7819 14.3807 23.5032 14.806C23.2392 15.2167 22.9899 15.62 22.7552 16.016C22.5206 16.412 22.3226 16.764 22.1612 17.072H20.0492C20.5626 16.0747 21.1712 15.0627 21.8752 14.036C22.5939 12.9947 23.3052 12.0047 24.0092 11.066L20.2252 5.632H22.5352L25.2632 9.636L28.0132 5.632H30.1912L26.4952 10.934C27.1992 11.8874 27.9179 12.8994 28.6512 13.97C29.3992 15.026 30.0299 16.06 30.5432 17.072H28.2992ZM32.9029 11.374C32.9029 10.362 33.0496 9.482 33.3429 8.734C33.6362 7.97133 34.0249 7.34067 34.5089 6.842C34.9929 6.34333 35.5502 5.96933 36.1809 5.72C36.8116 5.47067 37.4569 5.346 38.1169 5.346C39.6569 5.346 40.8376 5.83 41.6589 6.798C42.4802 7.75133 42.8909 9.21067 42.8909 11.176C42.8909 11.264 42.8909 11.3814 42.8909 11.528C42.8909 11.66 42.8836 11.7847 42.8689 11.902H35.0369C35.1249 13.09 35.4696 13.992 36.0709 14.608C36.6722 15.224 37.6109 15.532 38.8869 15.532C39.6056 15.532 40.2069 15.4734 40.6909 15.356C41.1896 15.224 41.5636 15.0994 41.8129 14.982L42.0989 16.698C41.8496 16.83 41.4096 16.9694 40.7789 17.116C40.1629 17.2627 39.4589 17.336 38.6669 17.336C37.6696 17.336 36.8042 17.1894 36.0709 16.896C35.3522 16.588 34.7582 16.17 34.2889 15.642C33.8196 15.114 33.4676 14.4907 33.2329 13.772C33.0129 13.0387 32.9029 12.2394 32.9029 11.374ZM40.7569 10.252C40.7716 9.328 40.5369 8.57267 40.0529 7.986C39.5836 7.38467 38.9309 7.084 38.0949 7.084C37.6256 7.084 37.2076 7.17933 36.8409 7.37C36.4889 7.546 36.1882 7.78067 35.9389 8.074C35.6896 8.36733 35.4916 8.70467 35.3449 9.086C35.2129 9.46733 35.1249 9.856 35.0809 10.252H40.7569ZM50.582 17.292C49.3206 17.2627 48.426 16.9914 47.898 16.478C47.37 15.9647 47.106 15.1654 47.106 14.08V0.351999L49.152 0V13.75C49.152 14.0874 49.1813 14.366 49.24 14.586C49.2986 14.806 49.394 14.982 49.526 15.114C49.658 15.246 49.834 15.3487 50.054 15.422C50.274 15.4807 50.5453 15.532 50.868 15.576L50.582 17.292ZM4.048 26.672C6.18933 26.672 7.832 27.0827 8.976 27.904C10.1347 28.7107 10.714 29.9207 10.714 31.534C10.714 32.414 10.5527 33.1694 10.23 33.8C9.922 34.416 9.46733 34.922 8.866 35.318C8.27933 35.6994 7.56067 35.978 6.71 36.154C5.85933 36.33 4.89867 36.418 3.828 36.418H2.134V42.072H0V27.046C0.601334 26.8994 1.26867 26.804 2.002 26.76C2.75 26.7014 3.432 26.672 4.048 26.672ZM4.224 28.542C3.31467 28.542 2.618 28.564 2.134 28.608V34.592H3.74C4.47333 34.592 5.13333 34.548 5.72 34.46C6.30667 34.3574 6.798 34.196 7.194 33.976C7.60467 33.7414 7.92 33.426 8.14 33.03C8.36 32.634 8.47 32.128 8.47 31.512C8.47 30.9254 8.35267 30.4414 8.118 30.06C7.898 29.6787 7.59 29.378 7.194 29.158C6.81267 28.9234 6.36533 28.762 5.852 28.674C5.33867 28.586 4.796 28.542 4.224 28.542ZM14.5728 42.072V25.352L16.6188 25V30.852C17.0001 30.7054 17.4034 30.5954 17.8288 30.522C18.2688 30.434 18.7014 30.39 19.1268 30.39C20.0361 30.39 20.7914 30.522 21.3928 30.786C21.9941 31.0354 22.4708 31.3947 22.8228 31.864C23.1894 32.3187 23.4461 32.8687 23.5928 33.514C23.7394 34.1594 23.8128 34.8707 23.8128 35.648V42.072H21.7668V36.088C21.7668 35.384 21.7154 34.7827 21.6128 34.284C21.5248 33.7854 21.3708 33.382 21.1508 33.074C20.9308 32.766 20.6374 32.546 20.2708 32.414C19.9041 32.2674 19.4494 32.194 18.9068 32.194C18.6868 32.194 18.4594 32.2087 18.2248 32.238C17.9901 32.2674 17.7628 32.304 17.5428 32.348C17.3374 32.3774 17.1468 32.414 16.9708 32.458C16.8094 32.502 16.6921 32.5387 16.6188 32.568V42.072H14.5728ZM38.5591 36.352C38.5591 37.2614 38.4271 38.0827 38.1631 38.816C37.8991 39.5494 37.5251 40.18 37.0411 40.708C36.5718 41.236 36.0071 41.6467 35.3471 41.94C34.6871 42.2187 33.9685 42.358 33.1911 42.358C32.4138 42.358 31.6951 42.2187 31.0351 41.94C30.3751 41.6467 29.8031 41.236 29.3191 40.708C28.8498 40.18 28.4831 39.5494 28.2191 38.816C27.9551 38.0827 27.8231 37.2614 27.8231 36.352C27.8231 35.4574 27.9551 34.6434 28.2191 33.91C28.4831 33.162 28.8498 32.524 29.3191 31.996C29.8031 31.468 30.3751 31.0647 31.0351 30.786C31.6951 30.4927 32.4138 30.346 33.1911 30.346C33.9685 30.346 34.6871 30.4927 35.3471 30.786C36.0071 31.0647 36.5718 31.468 37.0411 31.996C37.5251 32.524 37.8991 33.162 38.1631 33.91C38.4271 34.6434 38.5591 35.4574 38.5591 36.352ZM36.4251 36.352C36.4251 35.0614 36.1318 34.042 35.5451 33.294C34.9731 32.5314 34.1885 32.15 33.1911 32.15C32.1938 32.15 31.4018 32.5314 30.8151 33.294C30.2431 34.042 29.9571 35.0614 29.9571 36.352C29.9571 37.6427 30.2431 38.6694 30.8151 39.432C31.4018 40.18 32.1938 40.554 33.1911 40.554C34.1885 40.554 34.9731 40.18 35.5451 39.432C36.1318 38.6694 36.4251 37.6427 36.4251 36.352ZM44.6717 30.632H49.0057V32.348H44.6717V37.628C44.6717 38.2 44.7157 38.6767 44.8037 39.058C44.8917 39.4247 45.0237 39.718 45.1997 39.938C45.3757 40.1434 45.5957 40.29 45.8597 40.378C46.1237 40.466 46.4317 40.51 46.7837 40.51C47.3997 40.51 47.891 40.444 48.2577 40.312C48.639 40.1654 48.903 40.0627 49.0497 40.004L49.4457 41.698C49.2404 41.8007 48.881 41.9254 48.3677 42.072C47.8544 42.2334 47.2677 42.314 46.6077 42.314C45.8304 42.314 45.185 42.2187 44.6717 42.028C44.173 41.8227 43.7697 41.522 43.4617 41.126C43.1537 40.73 42.9337 40.246 42.8017 39.674C42.6844 39.0874 42.6257 38.4127 42.6257 37.65V27.442L44.6717 27.09V30.632ZM62.7265 36.352C62.7265 37.2614 62.5945 38.0827 62.3305 38.816C62.0665 39.5494 61.6925 40.18 61.2085 40.708C60.7391 41.236 60.1745 41.6467 59.5145 41.94C58.8545 42.2187 58.1358 42.358 57.3585 42.358C56.5811 42.358 55.8625 42.2187 55.2025 41.94C54.5425 41.6467 53.9705 41.236 53.4865 40.708C53.0171 40.18 52.6505 39.5494 52.3865 38.816C52.1225 38.0827 51.9905 37.2614 51.9905 36.352C51.9905 35.4574 52.1225 34.6434 52.3865 33.91C52.6505 33.162 53.0171 32.524 53.4865 31.996C53.9705 31.468 54.5425 31.0647 55.2025 30.786C55.8625 30.4927 56.5811 30.346 57.3585 30.346C58.1358 30.346 58.8545 30.4927 59.5145 30.786C60.1745 31.0647 60.7391 31.468 61.2085 31.996C61.6925 32.524 62.0665 33.162 62.3305 33.91C62.5945 34.6434 62.7265 35.4574 62.7265 36.352ZM60.5925 36.352C60.5925 35.0614 60.2991 34.042 59.7125 33.294C59.1405 32.5314 58.3558 32.15 57.3585 32.15C56.3611 32.15 55.5691 32.5314 54.9825 33.294C54.4105 34.042 54.1245 35.0614 54.1245 36.352C54.1245 37.6427 54.4105 38.6694 54.9825 39.432C55.5691 40.18 56.3611 40.554 57.3585 40.554C58.3558 40.554 59.1405 40.18 59.7125 39.432C60.2991 38.6694 60.5925 37.6427 60.5925 36.352ZM66.925 30.962C67.3944 30.8447 68.0177 30.72 68.795 30.588C69.5724 30.456 70.467 30.39 71.479 30.39C72.3884 30.39 73.1437 30.522 73.745 30.786C74.3464 31.0354 74.823 31.3947 75.175 31.864C75.5417 32.3187 75.7984 32.8687 75.945 33.514C76.0917 34.1594 76.165 34.8707 76.165 35.648V42.072H74.119V36.088C74.119 35.384 74.0677 34.7827 73.965 34.284C73.877 33.7854 73.723 33.382 73.503 33.074C73.283 32.766 72.9897 32.546 72.623 32.414C72.2564 32.2674 71.8017 32.194 71.259 32.194C71.039 32.194 70.8117 32.2014 70.577 32.216C70.3424 32.2307 70.115 32.2527 69.895 32.282C69.6897 32.2967 69.499 32.3187 69.323 32.348C69.1617 32.3774 69.0444 32.3994 68.971 32.414V42.072H66.925V30.962ZM82.9239 42.072H80.8779V30.632H82.9239V42.072ZM81.8899 28.564C81.5232 28.564 81.2079 28.4467 80.9439 28.212C80.6945 27.9627 80.5699 27.6327 80.5699 27.222C80.5699 26.8114 80.6945 26.4887 80.9439 26.254C81.2079 26.0047 81.5232 25.88 81.8899 25.88C82.2565 25.88 82.5645 26.0047 82.8139 26.254C83.0779 26.4887 83.2099 26.8114 83.2099 27.222C83.2099 27.6327 83.0779 27.9627 82.8139 28.212C82.5645 28.4467 82.2565 28.564 81.8899 28.564ZM92.7343 42.336C91.8103 42.336 90.9963 42.1894 90.2923 41.896C89.603 41.6027 89.0163 41.192 88.5323 40.664C88.063 40.136 87.711 39.5127 87.4763 38.794C87.2416 38.0607 87.1243 37.254 87.1243 36.374C87.1243 35.494 87.249 34.6874 87.4983 33.954C87.7623 33.2207 88.129 32.59 88.5983 32.062C89.0676 31.5194 89.6396 31.1014 90.3143 30.808C91.0036 30.5 91.7663 30.346 92.6023 30.346C93.1156 30.346 93.629 30.39 94.1423 30.478C94.6556 30.566 95.147 30.7054 95.6163 30.896L95.1543 32.634C94.8463 32.4874 94.487 32.37 94.0763 32.282C93.6803 32.194 93.255 32.15 92.8003 32.15C91.6563 32.15 90.7763 32.5094 90.1603 33.228C89.559 33.9467 89.2583 34.9954 89.2583 36.374C89.2583 36.99 89.3243 37.5547 89.4563 38.068C89.603 38.5814 89.823 39.0214 90.1163 39.388C90.4243 39.7547 90.813 40.0407 91.2823 40.246C91.7516 40.4367 92.3236 40.532 92.9983 40.532C93.541 40.532 94.0323 40.4807 94.4723 40.378C94.9123 40.2754 95.257 40.1654 95.5063 40.048L95.7923 41.764C95.675 41.8374 95.5063 41.9107 95.2863 41.984C95.0663 42.0427 94.817 42.094 94.5383 42.138C94.2596 42.1967 93.959 42.2407 93.6363 42.27C93.3283 42.314 93.0276 42.336 92.7343 42.336ZM101.971 40.598C102.807 40.598 103.423 40.488 103.819 40.268C104.229 40.048 104.435 39.696 104.435 39.212C104.435 38.7134 104.237 38.3174 103.841 38.024C103.445 37.7307 102.792 37.4007 101.883 37.034C101.443 36.858 101.017 36.682 100.607 36.506C100.211 36.3154 99.8662 36.0954 99.5729 35.846C99.2795 35.5967 99.0449 35.296 98.8689 34.944C98.6929 34.592 98.6049 34.1594 98.6049 33.646C98.6049 32.634 98.9789 31.8347 99.7269 31.248C100.475 30.6467 101.494 30.346 102.785 30.346C103.107 30.346 103.43 30.368 103.753 30.412C104.075 30.4414 104.376 30.4854 104.655 30.544C104.933 30.588 105.175 30.6394 105.381 30.698C105.601 30.7567 105.769 30.808 105.887 30.852L105.513 32.612C105.293 32.4947 104.948 32.3774 104.479 32.26C104.009 32.128 103.445 32.062 102.785 32.062C102.213 32.062 101.714 32.1794 101.289 32.414C100.863 32.634 100.651 32.986 100.651 33.47C100.651 33.7194 100.695 33.9394 100.783 34.13C100.885 34.3207 101.032 34.4967 101.223 34.658C101.428 34.8047 101.677 34.944 101.971 35.076C102.264 35.208 102.616 35.3474 103.027 35.494C103.569 35.6994 104.053 35.9047 104.479 36.11C104.904 36.3007 105.263 36.528 105.557 36.792C105.865 37.056 106.099 37.3787 106.261 37.76C106.422 38.1267 106.503 38.5814 106.503 39.124C106.503 40.18 106.107 40.9794 105.315 41.522C104.537 42.0647 103.423 42.336 101.971 42.336C100.959 42.336 100.167 42.248 99.5949 42.072C99.0229 41.9107 98.6342 41.786 98.4289 41.698L98.8029 39.938C99.0375 40.026 99.4115 40.158 99.9249 40.334C100.438 40.51 101.12 40.598 101.971 40.598Z" fill="white"/>
</svg>
