<svg width="136" height="49" viewBox="0 0 136 49" fill="none" xmlns="http://www.w3.org/2000/svg">
<path d="M20.8089 36.6449L0 24.5V36.8549L20.8089 49L41.6181 36.8549V24.5L20.8089 36.6449ZM20.8089 0L0 12.145V24.5L20.8089 12.355L41.6181 24.5V12.145L20.8089 0Z" fill="white"/>
<path d="M64.5349 24.6233L62.6467 22.713C61.6168 23.2024 60.2903 23.455 58.6362 23.455C53.7518 23.455 51.6606 21.4026 51.6606 17.6611C51.6606 13.9669 53.7206 11.9303 58.6985 11.9303C63.6143 11.9303 65.6896 13.9669 65.6896 17.6453C65.7287 18.7908 65.4181 19.9208 64.8002 20.8816L66.5167 22.6182L64.5349 24.6233ZM58.6985 21.0711C61.7416 21.0711 62.8808 20.0133 62.8808 17.6611C62.8808 15.3562 61.7571 14.3141 58.6985 14.3141C55.5932 14.3141 54.4697 15.3402 54.4697 17.6611C54.4697 20.0291 55.6088 21.0711 58.6985 21.0711Z" fill="white"/>
<path d="M64.5349 24.6233L62.6467 22.713C61.6168 23.2024 60.2903 23.455 58.6362 23.455C53.7518 23.455 51.6606 21.4026 51.6606 17.6611C51.6606 13.9669 53.7206 11.9303 58.6985 11.9303C63.6143 11.9303 65.6896 13.9669 65.6896 17.6453C65.7287 18.7908 65.4181 19.9208 64.8002 20.8816L66.5167 22.6182L64.5349 24.6233ZM58.6985 21.0711C61.7416 21.0711 62.8808 20.0133 62.8808 17.6611C62.8808 15.3562 61.7571 14.3141 58.6985 14.3141C55.5932 14.3141 54.4697 15.3402 54.4697 17.6611C54.4697 20.0291 55.6088 21.0711 58.6985 21.0711Z" fill="white"/>
<path d="M67.1724 12.168H69.9811V17.6776C69.9811 19.2249 70.2933 20.9931 73.5861 20.9931C76.8789 20.9931 77.1908 19.209 77.1908 17.6776V12.168H79.9999V17.6776C79.9999 21.514 78.127 23.3769 73.5861 23.3769C69.0452 23.3769 67.1724 21.5298 67.1724 17.6776V12.168Z" fill="white"/>
<path d="M67.1724 12.168H69.9811V17.6776C69.9811 19.2249 70.2933 20.9931 73.5861 20.9931C76.8789 20.9931 77.1908 19.209 77.1908 17.6776V12.168H79.9999V17.6776C79.9999 21.514 78.127 23.3769 73.5861 23.3769C69.0452 23.3769 67.1724 21.5298 67.1724 17.6776V12.168Z" fill="white"/>
<path d="M79.6909 23.219L85.3242 12.168H89.1161L94.7651 23.219H91.6599L90.4893 20.8668H83.9511L82.7805 23.219H79.6909ZM84.9964 18.7513H89.444L87.2279 14.2676L84.9964 18.7513Z" fill="white"/>
<path d="M79.6909 23.219L85.3242 12.168H89.1161L94.7651 23.219H91.6599L90.4893 20.8668H83.9511L82.7805 23.219H79.6909ZM84.9964 18.7513H89.444L87.2279 14.2676L84.9964 18.7513Z" fill="white"/>
<path d="M105.549 20.7405V23.219H95.562V12.168H98.3706V20.7404L105.549 20.7405Z" fill="white"/>
<path d="M105.549 20.7405V23.219H95.562V12.168H98.3706V20.7404L105.549 20.7405Z" fill="white"/>
<path d="M109.234 23.219H106.425V12.168H109.234L109.234 23.219Z" fill="white"/>
<path d="M109.234 23.219H106.425V12.168H109.234L109.234 23.219Z" fill="white"/>
<path d="M110.124 12.168H122.608V14.6466H117.771V23.219H114.961V14.6466H110.124V12.168Z" fill="white"/>
<path d="M110.124 12.168H122.608V14.6466H117.771V23.219H114.961V14.6466H110.124V12.168Z" fill="white"/>
<path d="M127.585 20.7405L123.075 12.1681H126.119L129.317 18.6882L132.907 12.168H135.809L129.52 23.219H122.857V20.7405H127.585Z" fill="white"/>
<path d="M127.585 20.7405L123.075 12.1681H126.119L129.317 18.6882L132.907 12.168H135.809L129.52 23.219H122.857V20.7405H127.585Z" fill="white"/>
<path d="M52.02 25.7806H55.8122L60.6185 33.5795L65.4248 25.7806H69.2169V36.8318H66.408V29.2538L61.6796 36.8318H59.5574L54.8291 29.2538V36.8318H52.02V25.7806Z" fill="white"/>
<path d="M52.02 25.7806H55.8122L60.6185 33.5795L65.4248 25.7806H69.2169V36.8318H66.408V29.2538L61.6796 36.8318H59.5574L54.8291 29.2538V36.8318H52.02V25.7806Z" fill="white"/>
<path d="M70.2495 36.8318L75.8829 25.7806H79.6748L85.3238 36.8318H82.2185L81.0479 34.4795H74.5097L73.3391 36.8318H70.2495ZM75.555 32.3639H80.0026L77.7864 27.8804L75.555 32.3639Z" fill="white"/>
<path d="M70.2495 36.8318L75.8829 25.7806H79.6748L85.3238 36.8318H82.2185L81.0479 34.4795H74.5097L73.3391 36.8318H70.2495ZM75.555 32.3639H80.0026L77.7864 27.8804L75.555 32.3639Z" fill="white"/>
<path d="M82.8442 25.7806H95.7964V28.2592H90.7247V36.8318H87.9159V28.2592H82.8442V25.7806Z" fill="white"/>
<path d="M82.8442 25.7806H95.7964V28.2592H90.7247V36.8318H87.9159V28.2592H82.8442V25.7806Z" fill="white"/>
<path d="M103.065 25.5448C107.45 25.5448 109.635 27.2341 109.915 30.4862H107.06C106.794 28.6392 105.437 27.9286 103.065 27.9286C100.162 27.9286 98.9608 28.9548 98.9608 31.2598C98.9608 33.6435 100.178 34.6856 103.065 34.6856C105.421 34.6856 106.794 33.9437 107.06 32.0965H109.915C109.635 35.3486 107.45 37.0695 103.065 37.0695C98.2117 37.0695 96.1519 35.033 96.1519 31.2598C96.1519 27.5655 98.2117 25.5448 103.065 25.5448Z" fill="white"/>
<path d="M103.065 25.5448C107.45 25.5448 109.635 27.2341 109.915 30.4862H107.06C106.794 28.6392 105.437 27.9286 103.065 27.9286C100.162 27.9286 98.9608 28.9548 98.9608 31.2598C98.9608 33.6435 100.178 34.6856 103.065 34.6856C105.421 34.6856 106.794 33.9437 107.06 32.0965H109.915C109.635 35.3486 107.45 37.0695 103.065 37.0695C98.2117 37.0695 96.1519 35.033 96.1519 31.2598C96.1519 27.5655 98.2117 25.5448 103.065 25.5448Z" fill="white"/>
<path d="M114.43 25.7806V30.1064H122.857V25.7806H125.666V36.8318H122.857V32.506H114.43V36.8318H111.622V25.7806H114.43Z" fill="white"/>
<path d="M114.43 25.7806V30.1064H122.857V25.7806H125.666V36.8318H122.857V32.506H114.43V36.8318H111.622V25.7806H114.43Z" fill="white"/>
</svg>
