<svg width="186" height="51" viewBox="0 0 186 51" fill="none" xmlns="http://www.w3.org/2000/svg">
<g clip-path="url(#clip0_225_36)">
<mask id="mask0_225_36" style="mask-type:luminance" maskUnits="userSpaceOnUse" x="0" y="0" width="186" height="51">
<path d="M186 0.285156H0V50.4491H186V0.285156Z" fill="white"/>
</mask>
<g mask="url(#mask0_225_36)">
<path d="M47.449 13.0612C48.3392 12.458 49.4678 12.1526 50.8094 12.1526C52.3057 12.1526 53.5408 12.5343 54.4766 13.2852C55.4151 14.0386 56.077 15.0923 56.4447 16.4209L56.4828 16.5558L59.6149 15.7108L59.5743 15.5708C58.9935 13.6288 57.9436 12.0609 56.4574 10.913C54.9687 9.76259 53.0691 9.17969 50.8094 9.17969C48.8515 9.17969 47.1548 9.61754 45.7726 10.4804C44.3904 11.3432 43.3176 12.5623 42.5847 14.1048C41.8543 15.6421 41.4866 17.4466 41.4866 19.4701C41.4866 21.4935 41.8568 23.2981 42.5847 24.8354C43.3176 26.3778 44.3879 27.597 45.7726 28.4599C47.1548 29.3227 48.8489 29.7604 50.8094 29.7604C53.0691 29.7604 54.9687 29.1776 56.4574 28.0271C57.9436 26.8767 58.9935 25.3114 59.5743 23.3694L59.6149 23.2294L56.4828 22.3843L56.4447 22.5193C56.077 23.8377 55.4151 24.8889 54.4766 25.6473C53.5408 26.4033 52.3057 26.7876 50.8094 26.7876C49.4678 26.7876 48.3366 26.4822 47.4439 25.879C46.5512 25.2758 45.869 24.418 45.4201 23.3312C44.9661 22.2342 44.7404 20.9387 44.7506 19.4752C44.7506 18.0116 44.9814 16.7136 45.4353 15.6191C45.8842 14.5323 46.5639 13.6746 47.4541 13.0714L47.449 13.0612Z" fill="black"/>
<path d="M78.1567 25.1864L73.9872 14.5422L73.9517 14.4531H70.708L76.6578 29.1493L74.2079 35.8458H77.1878L85.2606 14.6466L85.3314 14.4531H82.1714L78.1567 25.1864Z" fill="black"/>
<path d="M97.2814 15.0803C96.2696 14.3956 95.0527 14.0469 93.6623 14.0469C92.2727 14.0469 91.0683 14.3956 90.1099 15.0803C89.9064 15.2253 89.7087 15.3883 89.5161 15.5689V14.4516H86.7261V35.8443H89.838V28.4809C89.9373 28.5623 90.0332 28.6361 90.1275 28.7049C91.0908 29.3997 92.2986 29.7535 93.7157 29.7535C95.1336 29.7535 96.3055 29.4048 97.3072 28.7151C98.309 28.0278 99.0897 27.076 99.6326 25.8898C100.173 24.7089 100.447 23.3625 100.447 21.8862C100.447 20.41 100.171 19.0534 99.6251 17.8826C99.0771 16.7041 98.2864 15.7624 97.2764 15.0777L97.2814 15.0803ZM96.7467 24.4594C96.4648 25.2103 96.0369 25.8161 95.4706 26.259C94.9101 26.6967 94.1878 26.9181 93.3253 26.9181C92.4629 26.9181 91.7022 26.7043 91.1442 26.2844C90.5862 25.8619 90.17 25.2688 89.9114 24.5231C89.6479 23.7671 89.5161 22.8814 89.5161 21.8913C89.5161 20.9012 89.6504 20.0155 89.9189 19.2596C90.1833 18.5138 90.5937 17.9258 91.1392 17.5109C91.6822 17.0986 92.387 16.8899 93.2319 16.8899C94.1294 16.8899 94.8775 17.1114 95.4531 17.5517C96.0311 17.9945 96.4673 18.5952 96.7492 19.3435C97.0328 20.0995 97.1779 20.9572 97.1779 21.8913C97.1779 22.8254 97.0328 23.6984 96.7492 24.4594H96.7467Z" fill="black"/>
<path d="M125.758 25.979C126.353 24.8056 126.655 23.4286 126.655 21.8888C126.655 20.3489 126.356 19.0025 125.763 17.8317C125.169 16.6583 124.317 15.7242 123.229 15.0548C122.141 14.3854 120.842 14.0469 119.366 14.0469C117.891 14.0469 116.633 14.3803 115.544 15.0344C114.457 15.6912 113.599 16.6201 112.998 17.796C112.397 18.9694 112.093 20.3464 112.093 21.8862C112.093 23.4261 112.39 24.7878 112.978 25.9611C113.566 27.1396 114.416 28.0762 115.504 28.7456C116.592 29.415 117.891 29.7535 119.366 29.7535C120.842 29.7535 122.129 29.4175 123.214 28.7507C124.302 28.0864 125.156 27.1523 125.753 25.9739L125.758 25.979ZM119.369 26.8087C118.063 26.8087 117.064 26.3633 116.392 25.4827C115.712 24.5918 115.369 23.3828 115.369 21.8888C115.369 20.919 115.517 20.0562 115.805 19.3232C116.09 18.6003 116.531 18.0251 117.117 17.6153C117.7 17.2055 118.459 16.9968 119.369 16.9968C120.691 16.9968 121.7 17.4397 122.364 18.3152C123.039 19.201 123.381 20.4049 123.381 21.8913C123.381 23.3777 123.044 24.5409 122.377 25.4547C121.72 26.3556 120.708 26.8113 119.369 26.8113V26.8087Z" fill="black"/>
<path d="M131.887 15.1867L141.19 29.2873L141.231 29.3509H144.307V9.58203H141.167V23.7335L131.865 9.64574L131.821 9.58203H128.748V29.3509H131.887V15.1867Z" fill="black"/>
<path d="M160.657 25.4164L157.63 24.4518L157.576 24.5612C157.228 25.2815 156.741 25.844 156.126 26.2284C155.509 26.6127 154.764 26.8087 153.914 26.8087C152.625 26.8087 151.626 26.3836 150.949 25.5412C150.406 24.8692 150.077 23.9631 149.963 22.8407H160.789L160.797 22.7083C160.906 20.9445 160.696 19.3995 160.173 18.1142C159.648 16.8212 158.842 15.8082 157.781 15.1058C156.721 14.4032 155.42 14.0469 153.916 14.0469C152.412 14.0469 151.195 14.3778 150.11 15.0268C149.022 15.6784 148.162 16.6125 147.556 17.8037C146.949 18.9898 146.643 20.41 146.643 22.0211C146.643 23.5432 146.955 24.9024 147.568 26.0579C148.184 27.2159 149.059 28.1322 150.17 28.7787C151.279 29.4252 152.585 29.7509 154.051 29.7509C155.517 29.7509 156.8 29.3819 157.967 28.6539C159.136 27.9235 160.021 26.88 160.596 25.5513L160.657 25.4088V25.4164ZM150.949 18.1219C151.628 17.2692 152.661 16.8365 154.021 16.8365C155.245 16.8365 156.166 17.2284 156.762 17.9996C157.191 18.557 157.477 19.3511 157.609 20.3565H150.036C150.19 19.4428 150.497 18.692 150.949 18.1219Z" fill="black"/>
<path d="M103.71 10.3945V14.4541H100.919V17.0096H103.71V26.6432C103.714 28.262 105.027 29.5805 106.642 29.5805H111.152V26.6967H107.279C107.028 26.6967 106.825 26.4931 106.825 26.2412V17.0096H111.155V14.4541H106.825V10.3945H103.71Z" fill="black"/>
<path d="M185.646 17.0096V14.4541H181.317V10.3945H178.205V14.4541H171.776L168.261 19.374L164.705 14.4541H161.01L166.44 21.82L160.888 29.3488H164.596L168.258 24.266L171.895 29.3488H175.603L170.039 21.82L175.413 14.528V17.007H178.205V26.6407C178.207 28.2595 179.521 29.5779 181.136 29.5779H185.646V26.6941H181.774C181.523 26.6941 181.319 26.4905 181.319 26.2386V17.007H185.649L185.646 17.0096Z" fill="black"/>
<path d="M69.2142 14.4707C68.9733 14.4707 68.6309 14.4707 68.2276 14.4707C67.4237 14.4707 66.3737 14.4707 65.4024 14.4707C64.322 14.4707 63.3076 14.8933 62.5416 15.6593C61.7783 16.4255 61.3572 17.4461 61.3572 18.5304V20.4673L61.3623 20.5334V29.4799H64.4742V18.6907C64.4742 17.9577 65.0702 17.3596 65.8006 17.3596H69.7392V14.6184C69.7392 14.4758 69.691 14.4758 69.2168 14.4733L69.2142 14.4707Z" fill="black"/>
<path d="M121.571 37.021C122.063 36.7002 122.699 36.545 123.477 36.5577C124.299 36.5628 124.984 36.7563 125.534 37.1355C126.082 37.5147 126.409 38.0288 126.516 38.6779L127.619 38.4717C127.563 37.8914 127.35 37.3798 126.982 36.9395C126.615 36.4992 126.133 36.1555 125.534 35.9087C124.936 35.6618 124.264 35.5371 123.516 35.5371C122.767 35.5371 122.108 35.6567 121.54 35.8934C120.969 36.1301 120.525 36.461 120.209 36.8835C119.892 37.306 119.731 37.7947 119.731 38.3521C119.731 38.8153 119.838 39.2048 120.053 39.5255C120.269 39.8436 120.64 40.1287 121.164 40.3781C121.692 40.6276 122.422 40.8795 123.356 41.129C124.241 41.3733 124.908 41.5845 125.354 41.7678C125.804 41.9485 126.102 42.147 126.257 42.3634C126.409 42.5797 126.486 42.8546 126.486 43.1931C126.486 43.8117 126.24 44.3003 125.748 44.6567C125.256 45.013 124.591 45.1912 123.757 45.1912C122.922 45.1912 122.204 45.013 121.626 44.6567C121.048 44.3003 120.68 43.8218 120.523 43.2211L119.419 43.4095C119.6 44.2901 120.069 44.9799 120.827 45.4737C121.583 45.9674 122.544 46.2143 123.711 46.2143C124.878 46.2143 125.879 45.947 126.574 45.4125C127.269 44.8781 127.617 44.1425 127.617 43.2033C127.617 42.684 127.505 42.2489 127.279 41.8951C127.056 41.5413 126.67 41.2333 126.125 40.9711C125.58 40.709 124.822 40.4519 123.85 40.2025C123.054 40.0014 122.436 39.8156 121.999 39.64C121.563 39.4644 121.259 39.2735 121.088 39.0622C120.916 38.8535 120.832 38.5989 120.832 38.2986C120.832 37.7743 121.078 37.3493 121.571 37.0286V37.021Z" fill="black"/>
<path d="M136.059 36.2046C135.365 35.7566 134.527 35.5352 133.551 35.5352C132.575 35.5352 131.753 35.7515 131.051 36.1817C130.35 36.6118 129.808 37.2303 129.425 38.0346C129.041 38.8389 128.849 39.7933 128.849 40.9005C128.849 42.0077 129.041 42.9316 129.428 43.7283C129.813 44.525 130.358 45.1409 131.063 45.5761C131.768 46.0113 132.603 46.2277 133.569 46.2277C134.535 46.2277 135.428 45.991 136.194 45.515C136.959 45.039 137.546 44.3646 137.951 43.489L136.98 43.0563C136.637 43.7385 136.174 44.2603 135.592 44.6267C135.009 44.9932 134.329 45.1765 133.551 45.1765C132.423 45.1765 131.55 44.8024 130.929 44.0515C130.356 43.3592 130.049 42.4048 130.006 41.1906H138.167C138.185 40.0021 138.012 38.9865 137.649 38.1415C137.285 37.2965 136.754 36.6526 136.062 36.2046H136.059ZM130.026 40.2159C130.112 39.157 130.413 38.3146 130.929 37.6884C131.548 36.9351 132.428 36.5583 133.569 36.5583C134.71 36.5583 135.519 36.9198 136.11 37.6451C136.612 38.2611 136.914 39.1189 137.01 40.2159H130.026Z" fill="black"/>
<path d="M142.101 37.1341C142.618 36.7677 143.275 36.5844 144.071 36.5844C144.781 36.5844 145.41 36.7575 145.958 37.1036C146.505 37.4497 146.909 37.941 147.163 38.5722L148.21 38.1879C147.923 37.3632 147.409 36.7141 146.663 36.2408C145.917 35.7699 145.057 35.5332 144.078 35.5332C143.1 35.5332 142.227 35.7546 141.538 36.2C140.845 36.6429 140.317 37.2664 139.952 38.0707C139.587 38.875 139.399 39.8092 139.387 40.8807C139.399 41.9319 139.584 42.8583 139.942 43.6601C140.3 44.4644 140.824 45.093 141.517 45.5461C142.209 45.9992 143.059 46.2257 144.068 46.2257C145.077 46.2257 145.859 46.0017 146.564 45.5563C147.269 45.1083 147.817 44.4568 148.21 43.6016L147.145 43.235C146.863 43.8663 146.46 44.3473 145.935 44.6782C145.408 45.0091 144.786 45.1745 144.071 45.1745C142.912 45.1745 142.04 44.7825 141.448 43.9986C140.86 43.2147 140.556 42.1737 140.538 40.8807C140.551 40.0357 140.685 39.2925 140.939 38.6485C141.195 38.0046 141.58 37.5006 142.098 37.1341H142.101Z" fill="black"/>
<path d="M157.089 41.2861C157.089 41.8435 157.026 42.3576 156.896 42.8285C156.77 43.2994 156.574 43.7091 156.318 44.0527C156.059 44.3964 155.73 44.6637 155.327 44.8545C154.926 45.0454 154.449 45.1395 153.901 45.1395C153.353 45.1395 152.912 45.0479 152.524 44.8672C152.134 44.6866 151.811 44.4193 151.552 44.0705C151.294 43.7219 151.101 43.2969 150.974 42.7954C150.848 42.294 150.782 41.7264 150.782 41.0875V35.8164H149.699V41.3599C149.699 41.8842 149.749 42.3882 149.853 42.8692C149.958 43.3503 150.115 43.7931 150.326 44.1953C150.536 44.5974 150.804 44.9487 151.129 45.2465C151.454 45.5443 151.834 45.7734 152.273 45.9362C152.712 46.0991 153.209 46.1806 153.764 46.1806C154.55 46.1806 155.256 46.0101 155.885 45.669C156.412 45.3839 156.846 44.9665 157.193 44.4218V45.9464H158.174V35.8189H157.092V41.2861H157.089Z" fill="black"/>
<path d="M167.995 32.3945H166.92V33.774H167.995V32.3945Z" fill="black"/>
<path d="M167.995 35.8164H166.92V45.9438H167.995V35.8164Z" fill="black"/>
<path d="M180.914 44.5084L177.431 35.8164H176.283L180.388 45.9489L178.723 50.4489H179.844L185.208 35.8164H184.076L180.914 44.5084Z" fill="black"/>
<path d="M172.669 32.9766H171.494V35.8348H169.428V36.8224H171.494V44.3639C171.494 45.1605 172.143 45.8096 172.937 45.8096H175.692V44.7813H173.333C172.965 44.7813 172.666 44.481 172.666 44.112V36.8224H175.692V35.8348H172.666V32.9766H172.669Z" fill="black"/>
<path d="M162.511 35.8125C161.973 35.8125 161.466 36.0238 161.086 36.4056C160.706 36.7874 160.495 37.2964 160.495 37.836V45.9578H161.621V37.9327C161.621 37.3142 162.124 36.8103 162.74 36.8103H165.349V35.8176C165.055 35.8176 163.779 35.8176 162.509 35.8176L162.511 35.8125Z" fill="black"/>
<path d="M10.4413 35.0056L17.8317 30.7042L18.3617 31.6205L24.1542 28.2404L24.664 29.116L33.5202 23.9695V20.1797L9.18591 34.2777L10.4413 35.0056Z" fill="black"/>
<path d="M5.2549 32.002L11.854 28.1613L12.384 29.0751L18.4327 25.5474L18.9425 26.4229L33.5202 17.9422V14.0684L3.97668 31.2614L5.2549 32.002Z" fill="black"/>
<path d="M32.0974 8.71094L0.00506592 27.398C0.0304273 27.8511 0.157235 28.2837 0.367735 28.6706L5.97008 25.4051L6.50013 26.3213L12.5514 22.7911L13.0586 23.6692L33.5227 11.7601V11.2587C33.5227 10.2177 32.9826 9.25304 32.1 8.71345L32.0974 8.71094Z" fill="black"/>
<path d="M6.52296 20.2409L12.5717 16.7107L13.0814 17.5888L30.208 7.61406L26.8704 5.67969L0 21.3328V22.8142L5.9929 19.3247L6.52296 20.2409Z" fill="black"/>
<path d="M7.17222 13.8984L13.2209 10.3682L13.7307 11.2463L25.0774 4.64141L21.7398 2.70703L0 15.367V16.8483L6.64216 12.9821L7.17222 13.8984Z" fill="black"/>
<path d="M7.00481 8.11365L12.7974 4.73358L13.3046 5.61169L20.0152 1.70985L18.245 0.684121C17.3244 0.152168 16.1907 0.152168 15.2727 0.684121L1.48616 8.67359C0.65177 9.15717 0.109035 10.0099 0.0151978 10.9592L6.47729 7.19737L7.00734 8.11365H7.00481Z" fill="black"/>
<path d="M22.4297 33.83L15.4375 37.8948C16.3251 38.3377 17.3802 38.3096 18.2475 37.8082L32.034 29.8187C32.9546 29.2868 33.5202 28.3018 33.5202 27.2353V26.0977L21.859 32.8424L22.4297 33.8326V33.83Z" fill="black"/>
</g>
</g>
<defs>
<clipPath id="clip0_225_36">
<rect width="186" height="51" fill="white"/>
</clipPath>
</defs>
</svg>
