<svg width="178" height="39" viewBox="0 0 178 39" fill="none" xmlns="http://www.w3.org/2000/svg">
<g clip-path="url(#clip0_225_18)">
<path d="M93.7858 16.0039L84.8118 6.79528V16.0039H81.6239V0.220703H82.6264L91.4381 9.04671V0.220703H94.6253V16.0039H93.7858Z" fill="black"/>
<path d="M140.679 6.27862V7.87599C140.679 12.829 137.035 16.274 132.755 16.274H132.73C128.154 16.228 124.511 12.6053 124.554 8.08056C124.603 3.60121 128.292 0 132.821 0H132.892C134.826 0.0218351 136.58 0.697735 137.967 1.79961L135.668 4.02719C134.848 3.46416 133.895 3.1729 132.87 3.14905H132.821C131.481 3.14905 130.205 3.6684 129.248 4.61171C128.292 5.53553 127.744 6.79596 127.744 8.12626C127.723 9.45151 128.246 10.7364 129.18 11.6814C130.135 12.6486 131.412 13.1898 132.755 13.1898C135.076 13.1898 137.057 11.5471 137.649 9.43002H131.604V6.27862H140.679Z" fill="black"/>
<path d="M154.773 0.220703L149.58 10.216V16.0039H146.392V10.216L141.177 0.220703H144.708L147.986 6.16507L151.244 0.220703H154.773Z" fill="black"/>
<path d="M114.603 6.52743V3.35452H117.654C118.542 3.35452 119.249 4.07612 119.249 4.95189C119.249 5.82969 118.542 6.52743 117.654 6.52743H114.603ZM119.41 16.0055H122.802L119.638 9.25285C121.3 8.50709 122.436 6.86404 122.436 4.95189C122.436 2.33934 120.298 0.203125 117.654 0.203125H111.415V6.52743V9.90487V15.9813H114.603V9.90487H116.53L119.41 16.0055Z" fill="black"/>
<path d="M97.7348 16.0039H108.3V12.8498H100.92V9.45079H107.229V6.29944H100.92V3.37681H108.366V0.220703H97.7348V16.0039Z" fill="black"/>
<path d="M67.8073 16.0039H78.373V12.8498H70.9951V9.45079H77.3023V6.29944H70.9951V3.37681H78.4414V0.220703H67.8073V0.244555V16.0039Z" fill="black"/>
<path d="M84.2465 30.8411C84.2465 33.545 86.4604 35.7352 89.198 35.7352C91.9324 35.7352 94.1482 33.545 94.1482 30.8411C94.1482 28.1348 91.9324 25.9466 89.198 25.9466C86.4604 25.9466 84.2465 28.1348 84.2465 30.8411ZM97.4054 30.8411C97.4054 35.3126 93.7179 38.9555 89.198 38.9555C84.6767 38.9555 80.9895 35.3126 80.9895 30.8411C80.9895 26.3719 84.6767 22.7266 89.198 22.7266C93.7179 22.7266 97.4054 26.3719 97.4054 30.8411Z" fill="black"/>
<path d="M116.668 30.8411C116.668 33.545 118.884 35.7352 121.619 35.7352C124.354 35.7352 126.57 33.545 126.57 30.8411C126.57 28.1348 124.354 25.9466 121.619 25.9466C118.884 25.9466 116.668 28.1348 116.668 30.8411ZM129.827 30.8411C129.827 35.3126 126.142 38.9555 121.619 38.9555C117.096 38.9555 113.411 35.3126 113.411 30.8411C113.411 26.3719 117.096 22.7266 121.619 22.7266C126.142 22.7266 129.827 26.3719 129.827 30.8411Z" fill="black"/>
<path d="M143.031 23.0156V26.1499H138.645V38.6878H135.48V26.1499H131.073V23.0156H143.031Z" fill="black"/>
<path d="M145.02 23.0156H148.185V38.6638H145.02V23.0156Z" fill="black"/>
<path d="M162.161 26.8157C159.085 24.8496 154.45 26.682 154.45 30.8859C154.45 35.2881 159.358 37.0557 162.342 34.8201L164.377 37.1204C162.951 38.2836 161.119 39.0001 159.13 39.0001C154.61 39.0001 150.922 35.3552 150.922 30.8859C150.922 26.4144 154.61 22.7715 159.13 22.7715C161.029 22.7715 162.794 23.419 164.195 24.4937L162.161 26.8157Z" fill="black"/>
<path d="M171.76 32.0463C171.238 31.9148 170.267 31.6662 169.363 31.0622C168.097 30.2356 167.396 29.0294 167.325 27.5317C167.26 26.2798 167.67 25.186 168.483 24.3354C169.655 23.1292 171.352 22.7949 172.166 22.7949C174.473 22.7949 175.761 23.6215 176.914 24.3571L177.434 24.6937L175.783 27.3526L175.217 26.9966C174.201 26.3468 173.545 25.9215 172.166 25.9215C171.964 25.9215 171.17 26.0793 170.764 26.5046C170.629 26.6383 170.473 26.8842 170.494 27.3979C170.516 28.2028 171.081 28.6495 172.529 29.0077C172.71 29.0508 172.845 29.0961 172.98 29.1415C174.495 29.6552 175.672 30.348 176.486 31.222C177.298 32.1133 177.728 33.164 177.728 34.2821C177.728 35.376 177.255 36.5181 176.462 37.3897C175.535 38.4168 174.246 38.9995 172.823 38.9995C172.12 38.9995 171.17 38.9542 170.04 38.6176C168.616 38.1709 167.35 37.3897 166.266 36.2479L168.573 34.103C170.245 35.8683 172.12 35.8683 172.823 35.8683C174.133 35.8683 174.56 34.6858 174.56 34.2821C174.56 33.4316 173.591 32.6507 171.939 32.0916L171.872 32.0702L171.76 32.0463Z" fill="black"/>
<path d="M68.0511 38.6633H71.2139V32.6296H73.1305L75.9862 38.6873H79.3544L76.2109 31.9822C77.8616 31.2417 78.9948 29.6102 78.9948 27.7112C78.9948 25.1173 76.8686 22.9961 74.2444 22.9961H68.0511V26.1253H74.2444C75.1261 26.1253 75.8265 26.8419 75.8265 27.7112C75.8265 28.5831 75.1261 29.2759 74.2444 29.2759H68.0511V38.6633Z" fill="black"/>
<path d="M105.982 36.0595C107.12 36.0595 108.031 35.1801 108.031 34.012C108.031 32.8871 106.893 32.0559 105.709 32.0559H103.23V36.0595H105.982ZM105.666 29.5811C106.825 29.5811 107.622 28.6805 107.622 27.5557C107.622 26.4305 106.825 25.6424 105.666 25.6424H103.23V29.5811H105.666ZM100.294 22.9668H105.938C108.645 22.9668 110.74 24.7657 110.74 27.1281C110.74 28.86 109.304 30.2093 108.237 30.7063C109.442 31.0886 111.194 32.3018 111.194 34.3706C111.194 36.8927 109.009 38.713 106.233 38.713H100.294V22.9668Z" fill="black"/>
<path d="M25.7192 31.0176H0V38.6871H25.7192V31.0176Z" fill="black"/>
<path d="M0 22.7439V15.068H40.8804C43.0465 15.068 44.7595 13.5907 44.7595 11.4502C44.7595 9.31627 43.0465 7.92013 40.8804 7.92013H0V0.274442L40.8804 0.244141C47.3108 0.244141 52.5244 5.45209 52.5244 11.808C52.5244 16.4698 49.7536 20.4691 45.703 22.2747L53.4091 38.7174H45.1514L37.5472 22.7439H0Z" fill="black"/>
</g>
<defs>
<clipPath id="clip0_225_18">
<rect width="178" height="39" fill="white"/>
</clipPath>
</defs>
</svg>
