<svg width="197" height="39" viewBox="0 0 197 39" fill="none" xmlns="http://www.w3.org/2000/svg">
<path d="M28.8143 25.7394C28.7429 25.8862 28.669 26.0329 28.5938 26.1783C28.5888 26.1873 28.5838 26.1975 28.5801 26.2064C26.6809 29.8569 24.2543 33.0914 21.0109 35.6943C19.6441 36.7916 18.2535 37.8315 16.6939 38.6392C16.4784 38.7515 16.2792 38.8051 16.075 38.7987C15.8721 38.8051 15.6728 38.7515 15.4574 38.6392C13.8977 37.8315 12.546 36.7431 11.1416 35.6943C9.38778 34.3852 6.54529 31.2222 5.37518 29.261C16.6663 31.2975 23.2734 21.7789 28.8143 25.7382V25.7394Z" fill="black"/>
<path d="M31.6055 16.1108C31.5617 16.4629 31.5128 16.8138 31.4564 17.1647C31.3349 17.9175 31.1833 18.6652 30.9917 19.4091C30.7561 20.3252 30.5068 21.2362 30.2237 22.1345C30.2237 22.1345 30.2237 22.1345 30.2237 22.1358C30.111 22.405 30.012 22.6551 29.9444 22.8707C24.8519 15.3452 17.9203 28.4785 4.17124 27.3084C3.97205 26.9576 3.78038 26.6016 3.59246 26.2418C19.4387 23.8953 19.8445 9.86761 31.608 16.1108H31.6055Z" fill="black"/>
<path d="M32.1478 6.21101C32.1027 7.07865 32.0638 7.9463 32.0275 8.8139C31.9849 9.82574 31.946 10.8389 31.906 11.8519C20.4795 5.62919 13.0444 21.6601 2.49864 23.7909C2.41095 23.5587 2.32576 23.3265 2.24434 23.0917C1.82215 21.8859 1.47765 20.6521 1.15819 19.4093C0.966524 18.6667 0.814935 17.9178 0.69342 17.165C0.590693 16.5283 0.510517 15.889 0.447879 15.2472C0.363944 14.4089 0.312581 13.5655 0.277503 12.7196C0.223634 11.4181 0.176029 10.1154 0.120908 8.8139C0.084578 7.9463 0.0457426 7.07737 0.00189588 6.21101C-0.0206538 5.78611 0.158491 5.69297 0.510517 5.63299C2.32576 5.32678 4.14352 5.02948 5.94874 4.67604C11.0187 3.68337 14.574 0.996234 15.699 0.124767C15.9182 -0.0449327 16.2264 -0.0411047 16.4419 0.133699C17.434 0.943923 20.4645 3.27889 26.2009 4.67604C27.9886 5.11114 29.8239 5.32678 31.6392 5.63299C31.9912 5.69297 32.1703 5.78483 32.1478 6.21101Z" fill="black"/>
<path d="M71.5972 8.64236V32.5275H67.7861V21.8953H56.012V32.5275H52.1848V8.64236H56.012V19.0921H67.7861V8.64236H71.5972ZM92.8036 29.3926L92.7875 32.5275H78.1626V8.64236H92.7875V11.7772H81.9898V18.976H90.6215V22.0114H81.9898V29.3926H92.8036ZM101.734 11.7772V19.4239H110.902V22.5587H101.734V32.5275H97.9065V8.64236H112.531V11.7772H101.734ZM124.108 20.0873C124.977 20.0873 125.736 19.9823 126.388 19.7721C127.039 19.551 127.582 19.2469 128.016 18.8599C128.451 18.4729 128.777 18.014 128.994 17.4831C129.211 16.9413 129.319 16.3442 129.319 15.6918C129.319 14.387 128.896 13.3917 128.049 12.7061C127.202 12.0205 125.921 11.6777 124.206 11.6777H121.111V20.0873H124.108ZM135.15 32.5275H131.746C131.073 32.5275 130.584 32.2621 130.28 31.7313L124.808 23.6867C124.623 23.4102 124.423 23.2112 124.206 23.0895C123.989 22.9679 123.663 22.9071 123.228 22.9071H121.111V32.5275H117.301V8.64236H124.206C125.747 8.64236 127.072 8.80267 128.179 9.12334C129.298 9.44401 130.215 9.90293 130.931 10.5001C131.648 11.0861 132.175 11.7939 132.511 12.6232C132.859 13.4525 133.032 14.3759 133.032 15.3932C133.032 16.2226 132.907 16.9966 132.658 17.7154C132.419 18.4341 132.066 19.0866 131.6 19.6726C131.143 20.2587 130.579 20.7674 129.906 21.1986C129.233 21.6299 128.467 21.9672 127.609 22.2105C128.076 22.4979 128.478 22.9016 128.814 23.4213L135.15 32.5275ZM142.78 32.5275H138.953V8.64236H142.78V32.5275ZM168.726 8.64236V32.5275H166.787C166.495 32.5275 166.245 32.4777 166.039 32.3782C165.832 32.2676 165.637 32.0907 165.452 31.8475L152.57 14.9952C152.603 15.3158 152.625 15.6365 152.636 15.9572C152.657 16.2668 152.668 16.5543 152.668 16.8197V32.5275H149.313V8.64236H151.3C151.463 8.64236 151.599 8.65339 151.707 8.67551C151.827 8.68654 151.935 8.7142 152.033 8.75844C152.131 8.80267 152.223 8.86902 152.31 8.95749C152.396 9.04596 152.489 9.15654 152.587 9.28925L165.485 26.1581C165.452 25.8153 165.425 25.478 165.403 25.1463C165.392 24.8146 165.387 24.5049 165.387 24.2175V8.64236H168.726ZM194.492 20.7674V30.2219C192.158 31.9359 189.443 32.7929 186.349 32.7929C184.449 32.7929 182.728 32.4943 181.187 31.8972C179.656 31.289 178.347 30.4486 177.262 29.376C176.176 28.2923 175.34 27.0041 174.754 25.5112C174.168 24.0184 173.874 22.3763 173.874 20.5849C173.874 18.7825 174.157 17.1348 174.721 15.642C175.286 14.1381 176.095 12.8499 177.148 11.7772C178.201 10.6936 179.471 9.8587 180.959 9.27262C182.446 8.67551 184.118 8.37695 185.975 8.37695C186.919 8.37695 187.793 8.45434 188.597 8.60916C189.411 8.75289 190.165 8.95749 190.86 9.22289C191.555 9.48825 192.196 9.80897 192.782 10.1849C193.368 10.5609 193.906 10.9811 194.394 11.4455L193.303 13.2203C193.13 13.4968 192.907 13.6682 192.635 13.7345C192.364 13.8009 192.071 13.7345 191.756 13.5355C191.441 13.3475 191.105 13.1484 190.746 12.9384C190.399 12.7282 189.997 12.5347 189.541 12.3578C189.085 12.1698 188.559 12.0205 187.962 11.9099C187.364 11.7883 186.659 11.7275 185.845 11.7275C184.607 11.7275 183.489 11.9376 182.49 12.3578C181.501 12.767 180.655 13.3585 179.949 14.1326C179.243 14.8956 178.701 15.8245 178.32 16.9192C177.94 18.014 177.75 19.2358 177.75 20.5849C177.75 22.0114 177.951 23.2886 178.353 24.4165C178.755 25.5334 179.325 26.4843 180.063 27.2694C180.801 28.0435 181.691 28.6351 182.734 29.0442C183.787 29.4534 184.959 29.658 186.252 29.658C187.218 29.658 188.076 29.5529 188.825 29.3428C189.585 29.1327 190.328 28.8397 191.056 28.4637V23.7199H187.782C187.532 23.7199 187.337 23.6535 187.196 23.5208C187.055 23.3771 186.984 23.1946 186.984 22.9734V20.7674H194.492Z" fill="black"/>
</svg>
