<svg width="510" height="101" viewBox="0 0 510 101" fill="none" xmlns="http://www.w3.org/2000/svg">
<path fill-rule="evenodd" clip-rule="evenodd" d="M45.5 8C70.6289 8 90.9999 28.3711 91 53.5C91 78.629 70.629 99 45.5 99C20.371 99 0 78.629 0 53.5C5.25742e-05 28.3711 20.3711 8 45.5 8ZM45 19C25.6701 19 10.0001 34.6701 10 54C10 73.33 25.67 89 45 89C64.33 89 80 73.33 80 54C79.9999 34.6701 64.3299 19 45 19Z" fill="#D9D9D9"/>
<path d="M84 72H101V84H84V101H72V84H55V72H72V55H84V72Z" fill="#D9D9D9"/>
<path d="M165.071 37.29V98H156.361V87.6C151.811 95.27 142.321 99.3 133.481 99.3C116.191 99.3 102.411 86.69 102.411 67.45C102.411 48.21 116.191 35.99 133.481 35.99C142.321 35.99 151.811 39.63 156.361 47.3V37.29H165.071ZM111.121 67.45C111.121 80.97 120.871 90.59 133.481 90.59C145.961 90.59 156.361 82.53 156.361 67.45C156.361 52.37 144.401 44.7 133.481 44.7C120.871 44.7 111.121 53.54 111.121 67.45ZM234.531 64.85V98H225.821V62.64C225.821 51.33 220.491 44.57 211.131 44.57C201.511 44.57 190.981 50.03 190.981 64.85V98H182.271V37.29H190.981V47.3C194.751 39.37 205.541 35.99 211.131 35.99C221.531 35.99 228.681 40.8 232.191 49.25C237.781 37.81 248.571 35.99 254.681 35.99C269.631 35.99 278.211 46 278.081 62.64V98H269.371V62.64C269.371 51.33 264.041 44.57 254.681 44.57C245.061 44.57 234.531 50.03 234.531 64.85ZM294.406 98V4.4H303.116V47.3C307.666 39.63 317.156 35.99 325.996 35.99C343.286 35.99 357.066 48.21 357.066 67.45C357.066 86.69 343.286 99.3 325.996 99.3C317.156 99.3 307.666 95.27 303.116 87.6V98H294.406ZM348.356 67.45C348.356 53.54 338.606 44.7 325.996 44.7C315.076 44.7 303.116 52.37 303.116 67.45C303.116 82.53 313.516 90.59 325.996 90.59C338.606 90.59 348.356 80.97 348.356 67.45ZM406.115 38.33L405.075 46.78C402.085 45.35 398.445 44.7 396.235 44.7C383.885 44.7 378.815 59.26 378.815 75.38V98H370.105V37.29H378.815V51.07C381.805 40.67 387.395 35.99 396.235 35.99C400.395 35.99 404.945 37.29 406.115 38.33ZM423.789 37.29V98H415.209V37.29H423.789ZM412.999 14.67C412.999 11.03 415.989 8.43 419.629 8.43C423.269 8.43 426.259 11.03 426.259 14.67C426.259 18.31 423.269 20.91 419.629 20.91C415.989 20.91 412.999 18.31 412.999 14.67ZM499.389 37.29V98H490.679V87.6C486.129 95.27 476.639 99.3 467.799 99.3C450.509 99.3 436.729 86.69 436.729 67.45C436.729 48.21 450.509 35.99 467.799 35.99C476.639 35.99 486.129 39.63 490.679 47.3V37.29H499.389ZM445.439 67.45C445.439 80.97 455.189 90.59 467.799 90.59C480.279 90.59 490.679 82.53 490.679 67.45C490.679 52.37 478.719 44.7 467.799 44.7C455.189 44.7 445.439 53.54 445.439 67.45Z" fill="white"/>
</svg>
