<svg width="137" height="49" viewBox="0 0 137 49" fill="none" xmlns="http://www.w3.org/2000/svg">
<g clip-path="url(#clip0_225_66)">
<path d="M21.4044 36.6449L0.59552 24.5V36.8549L21.4044 49L42.2136 36.8549V24.5L21.4044 36.6449ZM21.4044 0L0.59552 12.145V24.5L21.4044 12.355L42.2136 24.5V12.145L21.4044 0Z" fill="black"/>
<path d="M65.1306 24.6227L63.2424 22.7124C62.2125 23.2018 60.886 23.4544 59.2319 23.4544C54.3475 23.4544 52.2563 21.402 52.2563 17.6605C52.2563 13.9663 54.3163 11.9297 59.2943 11.9297C64.21 11.9297 66.2853 13.9663 66.2853 17.6447C66.3244 18.7902 66.0138 19.9202 65.3959 20.881L67.1124 22.6176L65.1306 24.6227ZM59.2943 21.0704C62.3373 21.0704 63.4765 20.0127 63.4765 17.6605C63.4765 15.3556 62.3528 14.3135 59.2943 14.3135C56.1889 14.3135 55.0654 15.3396 55.0654 17.6605C55.0654 20.0285 56.2045 21.0704 59.2943 21.0704Z" fill="black"/>
<path d="M65.1306 24.6227L63.2424 22.7124C62.2125 23.2018 60.886 23.4544 59.2319 23.4544C54.3475 23.4544 52.2563 21.402 52.2563 17.6605C52.2563 13.9663 54.3163 11.9297 59.2943 11.9297C64.21 11.9297 66.2853 13.9663 66.2853 17.6447C66.3244 18.7902 66.0138 19.9202 65.3959 20.881L67.1124 22.6176L65.1306 24.6227ZM59.2943 21.0704C62.3373 21.0704 63.4765 20.0127 63.4765 17.6605C63.4765 15.3556 62.3528 14.3135 59.2943 14.3135C56.1889 14.3135 55.0654 15.3396 55.0654 17.6605C55.0654 20.0285 56.2045 21.0704 59.2943 21.0704Z" fill="black"/>
<path d="M67.7681 12.168H70.5769V17.6776C70.5769 19.2249 70.889 20.9931 74.1819 20.9931C77.4747 20.9931 77.7866 19.209 77.7866 17.6776V12.168H80.5956V17.6776C80.5956 21.514 78.7228 23.3769 74.1819 23.3769C69.641 23.3769 67.7681 21.5298 67.7681 17.6776V12.168Z" fill="black"/>
<path d="M67.7681 12.168H70.5769V17.6776C70.5769 19.2249 70.889 20.9931 74.1819 20.9931C77.4747 20.9931 77.7866 19.209 77.7866 17.6776V12.168H80.5956V17.6776C80.5956 21.514 78.7228 23.3769 74.1819 23.3769C69.641 23.3769 67.7681 21.5298 67.7681 17.6776V12.168Z" fill="black"/>
<path d="M80.2866 23.219L85.9198 12.168H89.7118L95.3607 23.219H92.2555L91.085 20.8668H84.5467L83.3762 23.219H80.2866ZM85.5921 18.7513H90.0396L87.8236 14.2676L85.5921 18.7513Z" fill="black"/>
<path d="M80.2866 23.219L85.9198 12.168H89.7118L95.3607 23.219H92.2555L91.085 20.8668H84.5467L83.3762 23.219H80.2866ZM85.5921 18.7513H90.0396L87.8236 14.2676L85.5921 18.7513Z" fill="black"/>
<path d="M106.145 20.7405V23.219H96.1576V12.168H98.9662V20.7404L106.145 20.7405Z" fill="black"/>
<path d="M106.145 20.7405V23.219H96.1576V12.168H98.9662V20.7404L106.145 20.7405Z" fill="black"/>
<path d="M109.829 23.219H107.021V12.168H109.829L109.829 23.219Z" fill="black"/>
<path d="M109.829 23.219H107.021V12.168H109.829L109.829 23.219Z" fill="black"/>
<path d="M110.72 12.168H123.204V14.6466H118.366V23.219H115.557V14.6466H110.72V12.168Z" fill="black"/>
<path d="M110.72 12.168H123.204V14.6466H118.366V23.219H115.557V14.6466H110.72V12.168Z" fill="black"/>
<path d="M128.181 20.7405L123.671 12.1681H126.714L129.913 18.6882L133.502 12.168H136.405L130.116 23.219H123.453V20.7405H128.181Z" fill="black"/>
<path d="M128.181 20.7405L123.671 12.1681H126.714L129.913 18.6882L133.502 12.168H136.405L130.116 23.219H123.453V20.7405H128.181Z" fill="black"/>
<path d="M52.6158 25.7812H56.408L61.2143 33.5801L66.0206 25.7812H69.8126V36.8324H67.0037V29.2544L62.2754 36.8324H60.1532L55.4248 29.2544V36.8324H52.6158V25.7812Z" fill="black"/>
<path d="M52.6158 25.7812H56.408L61.2143 33.5801L66.0206 25.7812H69.8126V36.8324H67.0037V29.2544L62.2754 36.8324H60.1532L55.4248 29.2544V36.8324H52.6158V25.7812Z" fill="black"/>
<path d="M70.8453 36.8324L76.4787 25.7812H80.2706L85.9196 36.8324H82.8142L81.6437 34.4801H75.1054L73.9349 36.8324H70.8453ZM76.1508 32.3645H80.5983L78.3822 27.881L76.1508 32.3645Z" fill="black"/>
<path d="M70.8453 36.8324L76.4787 25.7812H80.2706L85.9196 36.8324H82.8142L81.6437 34.4801H75.1054L73.9349 36.8324H70.8453ZM76.1508 32.3645H80.5983L78.3822 27.881L76.1508 32.3645Z" fill="black"/>
<path d="M83.4397 25.7812H96.3918V28.2598H91.3201V36.8324H88.5114V28.2598H83.4397V25.7812Z" fill="black"/>
<path d="M83.4397 25.7812H96.3918V28.2598H91.3201V36.8324H88.5114V28.2598H83.4397V25.7812Z" fill="black"/>
<path d="M103.661 25.5449C108.046 25.5449 110.231 27.2342 110.511 30.4863H107.656C107.39 28.6393 106.033 27.9288 103.661 27.9288C100.758 27.9288 99.5567 28.9549 99.5567 31.26C99.5567 33.6437 100.774 34.6857 103.661 34.6857C106.017 34.6857 107.39 33.9438 107.656 32.0966H110.511C110.23 35.3487 108.046 37.0696 103.661 37.0696C98.8076 37.0696 96.7478 35.0331 96.7478 31.26C96.7478 27.5656 98.8076 25.5449 103.661 25.5449Z" fill="black"/>
<path d="M103.661 25.5449C108.046 25.5449 110.231 27.2342 110.511 30.4863H107.656C107.39 28.6393 106.033 27.9288 103.661 27.9288C100.758 27.9288 99.5567 28.9549 99.5567 31.26C99.5567 33.6437 100.774 34.6857 103.661 34.6857C106.017 34.6857 107.39 33.9438 107.656 32.0966H110.511C110.23 35.3487 108.046 37.0696 103.661 37.0696C98.8076 37.0696 96.7478 35.0331 96.7478 31.26C96.7478 27.5656 98.8076 25.5449 103.661 25.5449Z" fill="black"/>
<path d="M115.026 25.7812V30.107H123.453V25.7812H126.262V36.8324H123.453V32.5066H115.026V36.8324H112.218V25.7812H115.026Z" fill="black"/>
<path d="M115.026 25.7812V30.107H123.453V25.7812H126.262V36.8324H123.453V32.5066H115.026V36.8324H112.218V25.7812H115.026Z" fill="black"/>
</g>
<defs>
<clipPath id="clip0_225_66">
<rect width="137" height="49" fill="white"/>
</clipPath>
</defs>
</svg>
